<svg width="305" height="305" viewBox="0 0 305 305" fill="none" xmlns="http://www.w3.org/2000/svg">
<path d="M198.717 72.5638L276.702 100.979C282.929 103.247 286.138 110.135 283.869 116.362L272.4 147.837C263.797 171.448 237.683 183.614 214.073 175.011L167.564 158.065L198.717 72.5638Z" fill="#EFBD0B" stroke="#222222" stroke-width="4"/>
<path d="M105.823 72.5638L27.8387 100.979C21.6118 103.247 18.4031 110.135 20.672 116.362L32.1406 147.837C40.7434 171.448 66.8575 183.614 90.468 175.011L136.977 158.065L105.823 72.5638Z" fill="#EFBD0B" stroke="#222222" stroke-width="4"/>
<path d="M199.717 119.564L277.702 147.979C283.929 150.247 287.138 157.135 284.869 163.362L273.4 194.837C264.797 218.448 238.683 230.614 215.073 222.011L168.564 205.065L199.717 119.564Z" fill="#EFBD0B" stroke="#222222" stroke-width="4"/>
<path d="M106.823 119.564L28.8387 147.979C22.6118 150.247 19.4031 157.135 21.672 163.362L33.1406 194.837C41.7434 218.448 67.8575 230.614 91.468 222.011L137.977 205.065L106.823 119.564Z" fill="#EFBD0B" stroke="#222222" stroke-width="4"/>
<path d="M161.942 39.8135C156.402 36.6429 149.598 36.6429 144.058 39.8135L59.5994 88.1555C53.9973 91.362 50.5411 97.3227 50.5411 103.778V200.222C50.5411 206.677 53.9973 212.638 59.5994 215.844L144.058 264.186C149.598 267.357 156.402 267.357 161.942 264.186L246.401 215.844C252.003 212.638 255.459 206.677 255.459 200.222V103.778C255.459 97.3227 252.003 91.362 246.401 88.1555L161.942 39.8135Z" fill="white" stroke="#222222" stroke-width="4"/>
<path d="M145.676 56.0994C149.917 53.7321 155.083 53.7321 159.324 56.0994L234.689 98.1683C239.12 100.641 241.866 105.319 241.866 110.393V193.607C241.866 198.681 239.12 203.359 234.689 205.832L159.324 247.901C155.083 250.268 149.917 250.268 145.676 247.901L70.3107 205.832C65.88 203.359 63.1343 198.681 63.1343 193.607V110.393C63.1343 105.319 65.88 100.641 70.3107 98.1683L145.676 56.0994Z" fill="#3B344F" stroke="#222222" stroke-width="4"/>
<path d="M152.416 61.7439C152.622 61.4051 153.114 61.4051 153.32 61.7439L157.552 68.7158C157.626 68.8378 157.746 68.9247 157.885 68.9566L165.874 70.7909C166.264 70.8804 166.417 71.3532 166.153 71.6539L160.782 77.7879C160.688 77.8962 160.641 78.0386 160.654 78.182L161.362 86.2788C161.397 86.6749 160.998 86.9659 160.632 86.8119L153.073 83.6371C152.942 83.5821 152.794 83.5822 152.663 83.6371L145.104 86.8119C144.738 86.9659 144.339 86.6749 144.373 86.2788L145.082 78.182C145.095 78.0386 145.048 77.8962 144.953 77.7879L139.582 71.6539C139.319 71.3532 139.472 70.8804 139.862 70.7909L147.851 68.9566C147.99 68.9247 148.11 68.8378 148.184 68.7158L152.416 61.7439Z" fill="#EFBD0B"/>
<rect x="44" y="127" width="216" height="55" rx="8" fill="#EFBD0B" stroke="#222222" stroke-width="4"/>
<path d="M88.0474 162.25H81.7394L80.5994 167H73.6074L80.5994 145.34H89.5294L96.2174 167H89.1874L88.0474 162.25ZM84.8554 150.014L82.6134 158.032H87.1354L85.0074 150.014H84.8554ZM114.538 143.934V167H109.18L108.648 164.074C108.142 165.062 107.394 165.847 106.406 166.43C105.418 167.013 104.304 167.304 103.062 167.304C101.086 167.304 99.5028 166.595 98.3122 165.176C97.1468 163.757 96.5642 161.629 96.5642 158.792C96.5642 156.639 96.8175 154.865 97.3242 153.472C97.8308 152.079 98.4262 151.078 99.1102 150.47C99.5408 150.09 100.415 149.773 101.732 149.52C103.075 149.267 104.266 149.14 105.304 149.14C106.216 149.14 107.154 149.229 108.116 149.406C108.04 148.19 108.002 147.519 108.002 147.392V144.2L114.538 143.934ZM105.912 162.212C106.596 162.212 107.306 162.098 108.04 161.87V153.624C107.306 153.523 106.495 153.472 105.608 153.472C104.848 153.472 104.367 153.535 104.164 153.662C103.886 153.865 103.658 154.447 103.48 155.41C103.328 156.347 103.252 157.335 103.252 158.374C103.252 159.919 103.48 160.945 103.936 161.452C104.418 161.959 105.076 162.212 105.912 162.212ZM128.533 149.52H135.335L130.015 167H121.009L115.689 149.52H122.491L125.341 162.934H125.721L128.533 149.52ZM145.991 167L145.383 164.606C144.218 166.506 142.597 167.456 140.519 167.456C138.822 167.456 137.429 166.987 136.339 166.05C135.275 165.087 134.743 163.745 134.743 162.022C134.743 160.958 135.047 160.033 135.655 159.248C136.289 158.437 137.15 157.867 138.239 157.538C139.658 157.133 141.849 156.905 144.813 156.854C144.813 155.182 144.737 154.295 144.585 154.194C144.459 154.093 144.053 154.042 143.369 154.042C142.939 154.042 142.343 154.067 141.583 154.118C140.367 154.169 138.721 154.308 136.643 154.536C136.441 153.168 136.289 151.699 136.187 150.128C137.53 149.849 138.936 149.621 140.405 149.444C141.875 149.241 143.192 149.14 144.357 149.14C146.384 149.14 147.904 149.482 148.917 150.166C149.931 150.825 150.589 151.699 150.893 152.788C151.197 153.877 151.337 155.258 151.311 156.93L151.273 162.516L151.387 167H145.991ZM142.723 163.2C143.382 163.2 144.079 163.073 144.813 162.82V160.008H144.509C142.635 160.008 141.596 160.109 141.393 160.312C141.267 160.439 141.165 160.629 141.089 160.882C141.039 161.135 141.013 161.376 141.013 161.604C141.013 162.212 141.153 162.63 141.431 162.858C141.71 163.086 142.141 163.2 142.723 163.2ZM171.156 150.622C171.384 150.901 171.548 151.597 171.65 152.712C171.776 153.827 171.84 155.524 171.84 157.804V167H165.342V157.88V156.322C165.342 155.511 165.278 155.005 165.152 154.802C164.949 154.549 164.48 154.422 163.746 154.422C163.391 154.422 163.125 154.435 162.948 154.46C162.238 154.485 161.504 154.65 160.744 154.954V167H154.246V149.52H159.528L160.25 152.446C162.074 150.242 164.252 149.14 166.786 149.14C167.698 149.14 168.546 149.267 169.332 149.52C170.142 149.773 170.75 150.141 171.156 150.622ZM189.547 166.468C187.495 167.152 185.203 167.494 182.669 167.494C179.832 167.494 177.704 166.785 176.285 165.366C174.892 163.922 174.195 161.68 174.195 158.64C174.195 157.145 174.398 155.676 174.803 154.232C175.209 152.763 175.639 151.775 176.095 151.268C176.627 150.685 177.666 150.191 179.211 149.786C180.782 149.381 182.403 149.178 184.075 149.178C185.823 149.178 187.584 149.33 189.357 149.634C189.307 150.267 189.218 151.015 189.091 151.876C188.99 152.712 188.876 153.459 188.749 154.118C187.179 154.017 185.697 153.966 184.303 153.966C182.935 153.966 182.061 154.042 181.681 154.194C181.479 154.27 181.289 154.789 181.111 155.752C180.959 156.715 180.883 157.614 180.883 158.45C180.883 159.565 181.035 160.426 181.339 161.034C181.669 161.617 182.175 162.022 182.859 162.25C183.543 162.478 184.468 162.592 185.633 162.592C186.14 162.592 187.255 162.541 188.977 162.44L189.547 166.468ZM202.328 162.44C202.961 162.44 204.139 162.377 205.862 162.25C206.09 162.25 206.508 162.225 207.116 162.174L207.686 166.088C205.735 167 203.202 167.456 200.086 167.456C197.173 167.456 194.931 166.721 193.36 165.252C191.815 163.783 191.042 161.566 191.042 158.602C191.042 157.082 191.232 155.613 191.612 154.194C192.017 152.775 192.473 151.787 192.98 151.23C193.512 150.673 194.5 150.191 195.944 149.786C197.388 149.381 198.819 149.178 200.238 149.178C202.518 149.178 204.228 149.583 205.368 150.394C206.508 151.205 207.255 152.332 207.61 153.776C207.965 155.195 208.142 157.107 208.142 159.514C206.419 159.615 204.735 159.666 203.088 159.666H197.692C197.692 160.477 197.857 161.085 198.186 161.49C198.541 161.895 199.035 162.161 199.668 162.288C200.301 162.389 201.188 162.44 202.328 162.44ZM198.072 153.7C197.92 153.776 197.806 154.105 197.73 154.688C197.654 155.271 197.603 155.929 197.578 156.664H199.554C200.745 156.664 201.606 156.651 202.138 156.626C202.138 155.41 201.961 154.549 201.606 154.042C201.277 153.535 200.694 153.282 199.858 153.282C199.174 153.282 198.579 153.421 198.072 153.7ZM227.833 143.934V167H222.475L221.943 164.074C221.436 165.062 220.689 165.847 219.701 166.43C218.713 167.013 217.598 167.304 216.357 167.304C214.381 167.304 212.798 166.595 211.607 165.176C210.442 163.757 209.859 161.629 209.859 158.792C209.859 156.639 210.112 154.865 210.619 153.472C211.126 152.079 211.721 151.078 212.405 150.47C212.836 150.09 213.71 149.773 215.027 149.52C216.37 149.267 217.56 149.14 218.599 149.14C219.511 149.14 220.448 149.229 221.411 149.406C221.335 148.19 221.297 147.519 221.297 147.392V144.2L227.833 143.934ZM219.207 162.212C219.891 162.212 220.6 162.098 221.335 161.87V153.624C220.6 153.523 219.79 153.472 218.903 153.472C218.143 153.472 217.662 153.535 217.459 153.662C217.18 153.865 216.952 154.447 216.775 155.41C216.623 156.347 216.547 157.335 216.547 158.374C216.547 159.919 216.775 160.945 217.231 161.452C217.712 161.959 218.371 162.212 219.207 162.212Z" fill="#222222"/>
<rect x="94" y="110" width="118" height="7" rx="3.5" fill="white"/>
<rect x="128" y="193" width="50" height="7" rx="3.5" fill="white"/>
<path d="M178.416 81.7439C178.622 81.4051 179.114 81.4051 179.32 81.7439L183.552 88.7158C183.626 88.8378 183.746 88.9247 183.885 88.9566L191.874 90.7909C192.264 90.8804 192.417 91.3532 192.153 91.6539L186.782 97.7879C186.688 97.8962 186.641 98.0386 186.654 98.182L187.362 106.279C187.397 106.675 186.998 106.966 186.632 106.812L179.073 103.637C178.942 103.582 178.794 103.582 178.663 103.637L171.104 106.812C170.738 106.966 170.339 106.675 170.373 106.279L171.082 98.182C171.095 98.0386 171.048 97.8962 170.953 97.7879L165.582 91.6539C165.319 91.3532 165.472 90.8804 165.862 90.7909L173.851 88.9566C173.99 88.9247 174.11 88.8378 174.184 88.7158L178.416 81.7439Z" fill="#EFBD0B"/>
<path d="M125.416 81.7439C125.622 81.4051 126.114 81.4051 126.32 81.7439L130.552 88.7158C130.626 88.8378 130.746 88.9247 130.885 88.9566L138.874 90.7909C139.264 90.8804 139.417 91.3532 139.153 91.6539L133.782 97.7879C133.688 97.8962 133.641 98.0386 133.654 98.182L134.362 106.279C134.397 106.675 133.998 106.966 133.632 106.812L126.073 103.637C125.942 103.582 125.794 103.582 125.663 103.637L118.104 106.812C117.738 106.966 117.339 106.675 117.373 106.279L118.082 98.182C118.095 98.0386 118.048 97.8962 117.953 97.7879L112.582 91.6539C112.319 91.3532 112.472 90.8804 112.862 90.7909L120.851 88.9566C120.99 88.9247 121.11 88.8378 121.184 88.7158L125.416 81.7439Z" fill="#EFBD0B"/>
</svg>
