<svg width="139" height="139" viewBox="0 0 139 139" fill="none" xmlns="http://www.w3.org/2000/svg">
<path d="M1.02966 70.0148C1.02966 31.9154 31.9154 1.02966 70.0148 1.02966V1.02966C108.114 1.02966 139 31.9154 139 70.0148V70.0148C139 108.114 108.114 139 70.0148 139V139C31.9154 139 1.02966 108.114 1.02966 70.0148V70.0148Z" fill="#7E869E" fill-opacity="0.25"/>
<circle cx="70.0148" cy="54.6847" r="30.6601" fill="#222222"/>
<path fill-rule="evenodd" clip-rule="evenodd" d="M117.699 117.893C118.145 118.631 118.009 119.577 117.381 120.169C105.025 131.843 88.3562 139 70.0158 139C51.6753 139 35.0064 131.843 22.6499 120.169C22.0228 119.577 21.8868 118.631 22.3326 117.893C31.2562 103.112 49.2596 93.0098 70.0156 93.0098C90.7718 93.0098 108.775 103.112 117.699 117.893Z" fill="#222222"/>
</svg>
