<svg width="135" height="135" viewBox="0 0 135 135" fill="none" xmlns="http://www.w3.org/2000/svg">
<path d="M16.875 67.5C16.875 39.5406 39.5406 16.875 67.5 16.875V16.875C95.4594 16.875 118.125 39.5406 118.125 67.5V67.5C118.125 95.4594 95.4594 118.125 67.5 118.125V118.125C39.5406 118.125 16.875 95.4594 16.875 67.5V67.5Z" fill="#7E869E" fill-opacity="0.25"/>
<circle cx="67.5" cy="56.25" r="22.5" fill="#222222"/>
<path fill-rule="evenodd" clip-rule="evenodd" d="M102.493 102.635C102.82 103.177 102.72 103.871 102.26 104.306C93.1922 112.873 80.9598 118.125 67.5006 118.125C54.0414 118.125 41.8089 112.873 32.7411 104.306C32.2809 103.871 32.181 103.177 32.5082 102.635C39.0569 91.7884 52.2687 84.375 67.5006 84.375C82.7325 84.375 95.9443 91.7884 102.493 102.635Z" fill="#222222"/>
</svg>
