<svg width="97" height="97" viewBox="0 0 97 97" fill="none" xmlns="http://www.w3.org/2000/svg">
<circle cx="48.5" cy="36.375" r="12.125" fill="#222222"/>
<path fill-rule="evenodd" clip-rule="evenodd" d="M70.5326 64.2964C70.7647 64.7158 70.6454 65.2385 70.2615 65.5255C64.1931 70.063 56.6605 72.75 48.5004 72.75C40.34 72.75 32.8072 70.0628 26.7387 65.525C26.3548 65.2379 26.2354 64.7152 26.4676 64.2958C30.3078 57.3573 38.729 52.5416 48.4999 52.5416C58.2711 52.5416 66.6925 57.3575 70.5326 64.2964Z" fill="#222222"/>
<path d="M68.7083 16.1666H70.7372C75.6332 16.1666 78.0811 16.1666 79.9577 17.1043C81.6802 17.965 83.0767 19.3615 83.9373 21.0839C84.875 22.9605 84.875 25.4085 84.875 30.3044V32.3333M68.7083 80.8333H70.7372C75.6332 80.8333 78.0811 80.8333 79.9577 79.8956C81.6802 79.035 83.0767 77.6384 83.9373 75.916C84.875 74.0394 84.875 71.5915 84.875 66.6955V64.6666M28.2917 16.1666H26.2628C21.3668 16.1666 18.9189 16.1666 17.0423 17.1043C15.3198 17.965 13.9233 19.3615 13.0627 21.0839C12.125 22.9605 12.125 25.4085 12.125 30.3044V32.3333M28.2917 80.8333H26.2628C21.3668 80.8333 18.9189 80.8333 17.0423 79.8956C15.3198 79.035 13.9233 77.6384 13.0627 75.916C12.125 74.0394 12.125 71.5915 12.125 66.6955V64.6666" stroke="#222222" strokeWidth="8.08333" strokeLinecap="round"/>
</svg>
