<svg width="305" height="305" viewBox="0 0 305 305" fill="none" xmlns="http://www.w3.org/2000/svg">
<path d="M161.942 39.8135C156.402 36.6429 149.598 36.6429 144.058 39.8135L59.5994 88.1555C53.9973 91.362 50.5411 97.3227 50.5411 103.778V200.222C50.5411 206.677 53.9973 212.638 59.5994 215.844L144.058 264.186C149.598 267.357 156.402 267.357 161.942 264.186L246.401 215.844C252.003 212.638 255.459 206.677 255.459 200.222V103.778C255.459 97.3227 252.003 91.362 246.401 88.1555L161.942 39.8135Z" fill="white" stroke="#222222" stroke-width="4"/>
<path d="M145.676 56.0994C149.917 53.7321 155.083 53.7321 159.324 56.0994L234.689 98.1683C239.12 100.641 241.866 105.319 241.866 110.393V193.607C241.866 198.681 239.12 203.359 234.689 205.832L159.324 247.901C155.083 250.268 149.917 250.268 145.676 247.901L70.3107 205.832C65.88 203.359 63.1343 198.681 63.1343 193.607V110.393C63.1343 105.319 65.88 100.641 70.3107 98.1683L145.676 56.0994Z" fill="#151414" stroke="#222222" stroke-width="4"/>
<path d="M151.93 57.9388C152.19 57.5112 152.81 57.5112 153.07 57.9388L158.411 66.7367C158.504 66.8906 158.656 67.0002 158.831 67.0405L168.913 69.3552C169.404 69.4681 169.597 70.0647 169.265 70.4442L162.487 78.1847C162.368 78.3214 162.309 78.501 162.325 78.682L163.219 88.8994C163.263 89.3993 162.76 89.7665 162.297 89.5722L152.758 85.5659C152.593 85.4965 152.407 85.4965 152.242 85.5659L142.703 89.5722C142.24 89.7665 141.737 89.3993 141.781 88.8994L142.675 78.682C142.691 78.501 142.632 78.3214 142.513 78.1847L135.735 70.4442C135.403 70.0648 135.596 69.4681 136.087 69.3552L146.169 67.0405C146.344 67.0002 146.496 66.8906 146.589 66.7367L151.93 57.9388Z" fill="#EFBD0B"/>
<rect x="44" y="127" width="216" height="55" rx="8" fill="#EFBD0B" stroke="#222222" stroke-width="4"/>
<path d="M87.6032 152.769C89.596 153.003 91.0173 153.677 91.8671 154.791C92.717 155.875 93.1419 157.194 93.1419 158.747C93.1419 159.714 92.9954 160.637 92.7023 161.516C92.4093 162.366 92.0576 163.099 91.6473 163.714C91.237 164.3 90.8854 164.681 90.5923 164.857C89.4201 165.619 85.8449 166 79.8666 166H71.3388V140.944H81.6689C84.0133 140.944 85.9035 141.076 87.3394 141.34C88.8047 141.574 89.9916 142.131 90.9 143.01C91.8085 143.86 92.2627 145.164 92.2627 146.922C92.2627 148.446 91.8818 149.677 91.1198 150.615C90.3872 151.553 89.215 152.197 87.6032 152.549V152.769ZM84.0866 146.263C83.7935 145.97 83.4418 145.794 83.0316 145.735C82.6506 145.647 82.0352 145.604 81.1853 145.604C80.3355 145.604 79.6908 145.618 79.2512 145.647V151.01H79.6908C79.8373 151.01 80.4527 151.01 81.537 151.01C82.6213 151.01 83.3393 150.937 83.6909 150.791C83.9547 150.673 84.1891 150.366 84.3943 149.867C84.6287 149.369 84.7459 148.827 84.7459 148.241C84.7459 147.362 84.5261 146.702 84.0866 146.263ZM84.8338 160.945C85.039 160.769 85.2002 160.447 85.3174 159.978C85.4639 159.48 85.5372 158.981 85.5372 158.483C85.5372 157.868 85.4493 157.296 85.2734 156.769C85.1269 156.212 84.9218 155.816 84.658 155.582C84.3943 155.318 84.0133 155.142 83.5151 155.054C83.0462 154.967 82.2403 154.923 81.0974 154.923C80.3648 154.923 79.7494 154.937 79.2512 154.967V161.34C80.6285 161.37 81.8594 161.355 82.9437 161.297C84.028 161.209 84.658 161.091 84.8338 160.945ZM108.32 160.725C109.053 160.725 110.415 160.652 112.408 160.505C112.672 160.505 113.155 160.476 113.859 160.417L114.518 164.945C112.262 166 109.331 166.527 105.727 166.527C102.356 166.527 99.7629 165.678 97.946 163.978C96.1584 162.278 95.2646 159.714 95.2646 156.285C95.2646 154.527 95.4844 152.827 95.9239 151.186C96.3928 149.545 96.9203 148.402 97.5064 147.757C98.1218 147.113 99.2647 146.556 100.935 146.087C102.606 145.618 104.261 145.384 105.902 145.384C108.54 145.384 110.518 145.853 111.837 146.79C113.155 147.728 114.02 149.032 114.43 150.703C114.84 152.344 115.046 154.556 115.046 157.34C113.053 157.458 111.104 157.516 109.199 157.516H102.957C102.957 158.454 103.148 159.157 103.529 159.626C103.939 160.095 104.51 160.403 105.243 160.549C105.976 160.666 107.001 160.725 108.32 160.725ZM103.397 150.615C103.221 150.703 103.089 151.084 103.001 151.758C102.913 152.432 102.855 153.194 102.825 154.043H105.111C106.488 154.043 107.485 154.029 108.1 153.999C108.1 152.593 107.895 151.596 107.485 151.01C107.104 150.424 106.43 150.131 105.463 150.131C104.672 150.131 103.983 150.292 103.397 150.615ZM128.241 145.428C129.619 145.428 131.055 145.53 132.549 145.735C134.044 145.911 135.787 146.16 137.78 146.483V163.978C137.78 168.169 136.388 171.421 133.604 173.737C133.252 174.03 132.461 174.279 131.23 174.484C130 174.689 128.608 174.792 127.054 174.792C123.684 174.792 121.017 174.352 119.054 173.473C119.025 172.828 119.069 171.978 119.186 170.923C119.332 169.868 119.479 169.033 119.625 168.418C121.735 168.74 123.801 168.901 125.824 168.901C126.849 168.901 127.714 168.843 128.417 168.725C129.15 168.637 129.604 168.491 129.78 168.286C130.014 168.051 130.19 167.172 130.307 165.648C130.337 165.238 130.351 164.637 130.351 163.846V162.747C129.619 163.831 128.681 164.608 127.538 165.077C126.395 165.546 125.369 165.78 124.461 165.78C121.999 165.78 120.138 164.974 118.878 163.363C117.618 161.751 116.988 159.392 116.988 156.285C116.988 154.234 117.266 152.314 117.823 150.527C118.409 148.71 119.201 147.45 120.197 146.746C120.842 146.307 121.882 145.985 123.318 145.779C124.783 145.545 126.424 145.428 128.241 145.428ZM127.318 160.285C128.402 160.285 129.384 160.11 130.263 159.758V150.571C129.941 150.512 129.457 150.454 128.813 150.395C128.52 150.366 128.08 150.351 127.494 150.351C126.585 150.351 126.014 150.439 125.78 150.615C125.457 150.849 125.193 151.509 124.988 152.593C124.813 153.648 124.725 154.761 124.725 155.934C124.725 157.545 124.9 158.674 125.252 159.318C125.633 159.963 126.322 160.285 127.318 160.285ZM145.257 143.274C144.26 143.274 143.396 142.937 142.663 142.263C141.96 141.589 141.608 140.783 141.608 139.845C141.608 138.907 141.96 138.101 142.663 137.427C143.396 136.753 144.26 136.416 145.257 136.416C146.253 136.416 147.103 136.753 147.806 137.427C148.51 138.101 148.861 138.907 148.861 139.845C148.861 140.783 148.51 141.589 147.806 142.263C147.103 142.937 146.253 143.274 145.257 143.274ZM141.476 145.779H148.993V166H141.476V145.779ZM172.282 147.054C172.545 147.377 172.736 148.182 172.853 149.472C173 150.761 173.073 152.725 173.073 155.362V166H165.556V155.45V153.648C165.556 152.71 165.483 152.124 165.336 151.89C165.102 151.596 164.56 151.45 163.71 151.45C163.299 151.45 162.992 151.465 162.787 151.494C161.966 151.523 161.116 151.714 160.237 152.065V166H152.72V145.779H158.83L159.666 149.164C161.776 146.615 164.296 145.34 167.226 145.34C168.281 145.34 169.263 145.486 170.172 145.779C171.109 146.072 171.813 146.497 172.282 147.054ZM196.106 147.054C196.37 147.377 196.561 148.182 196.678 149.472C196.824 150.761 196.898 152.725 196.898 155.362V166H189.381V155.45V153.648C189.381 152.71 189.308 152.124 189.161 151.89C188.927 151.596 188.384 151.45 187.535 151.45C187.124 151.45 186.817 151.465 186.611 151.494C185.791 151.523 184.941 151.714 184.062 152.065V166H176.545V145.779H182.655L183.49 149.164C185.6 146.615 188.121 145.34 191.051 145.34C192.106 145.34 193.088 145.486 193.996 145.779C194.934 146.072 195.637 146.497 196.106 147.054ZM212.634 160.725C213.367 160.725 214.73 160.652 216.722 160.505C216.986 160.505 217.47 160.476 218.173 160.417L218.832 164.945C216.576 166 213.645 166.527 210.041 166.527C206.671 166.527 204.077 165.678 202.26 163.978C200.473 162.278 199.579 159.714 199.579 156.285C199.579 154.527 199.799 152.827 200.238 151.186C200.707 149.545 201.234 148.402 201.821 147.757C202.436 147.113 203.579 146.556 205.249 146.087C206.92 145.618 208.575 145.384 210.217 145.384C212.854 145.384 214.832 145.853 216.151 146.79C217.47 147.728 218.334 149.032 218.744 150.703C219.155 152.344 219.36 154.556 219.36 157.34C217.367 157.458 215.418 157.516 213.513 157.516H207.271C207.271 158.454 207.462 159.157 207.843 159.626C208.253 160.095 208.825 160.403 209.557 160.549C210.29 160.666 211.315 160.725 212.634 160.725ZM207.711 150.615C207.535 150.703 207.403 151.084 207.315 151.758C207.227 152.432 207.169 153.194 207.139 154.043H209.425C210.803 154.043 211.799 154.029 212.414 153.999C212.414 152.593 212.209 151.596 211.799 151.01C211.418 150.424 210.744 150.131 209.777 150.131C208.986 150.131 208.297 150.292 207.711 150.615ZM234.533 145.34C234.914 145.34 235.31 145.384 235.72 145.472C236.16 145.56 236.482 145.662 236.687 145.779C236.687 146.424 236.614 147.494 236.468 148.988C236.321 150.454 236.189 151.494 236.072 152.109C235.779 152.08 235.237 152.065 234.446 152.065C232.599 152.065 230.958 152.168 229.522 152.373V166H222.005V145.779H228.291L229.171 149.032H229.215C230.064 147.919 230.973 147.025 231.94 146.351C232.907 145.677 233.772 145.34 234.533 145.34Z" fill="#222222"/>
<rect x="94" y="110" width="118" height="7" rx="3.5" fill="white"/>
<rect x="128" y="193" width="50" height="7" rx="3.5" fill="white"/>
</svg>
