<svg width="305" height="305" viewBox="0 0 305 305" fill="none" xmlns="http://www.w3.org/2000/svg">
<path d="M82.5 95H141.038L144.892 293.47C144.908 294.266 144.032 294.76 143.358 294.335L82.5 255.898V95Z" fill="#EFBD0B" stroke="#222222" stroke-width="4"/>
<path d="M225.714 96H167.175L163.321 294.47C163.306 295.266 164.182 295.76 164.855 295.335L225.714 256.898V96Z" fill="#EFBD0B" stroke="#222222" stroke-width="4"/>
<path d="M198.717 72.5638L276.702 100.979C282.929 103.247 286.138 110.135 283.869 116.362L272.4 147.837C263.797 171.448 237.683 183.614 214.073 175.011L167.564 158.065L198.717 72.5638Z" fill="#EFBD0B" stroke="#222222" stroke-width="4"/>
<path d="M105.823 72.5638L27.8387 100.979C21.6118 103.247 18.4031 110.135 20.672 116.362L32.1406 147.837C40.7434 171.448 66.8575 183.614 90.468 175.011L136.977 158.065L105.823 72.5638Z" fill="#EFBD0B" stroke="#222222" stroke-width="4"/>
<path d="M199.717 119.564L277.702 147.979C283.929 150.247 287.138 157.135 284.869 163.362L273.4 194.837C264.797 218.448 238.683 230.614 215.073 222.011L168.564 205.065L199.717 119.564Z" fill="#EFBD0B" stroke="#222222" stroke-width="4"/>
<path d="M106.823 119.564L28.8387 147.979C22.6118 150.247 19.4031 157.135 21.672 163.362L33.1406 194.837C41.7434 218.448 67.8575 230.614 91.468 222.011L137.977 205.065L106.823 119.564Z" fill="#EFBD0B" stroke="#222222" stroke-width="4"/>
<path d="M161.942 39.8135C156.402 36.6429 149.598 36.6429 144.058 39.8135L59.5994 88.1555C53.9973 91.362 50.5411 97.3227 50.5411 103.778V200.222C50.5411 206.677 53.9973 212.638 59.5994 215.844L144.058 264.186C149.598 267.357 156.402 267.357 161.942 264.186L246.401 215.844C252.003 212.638 255.459 206.677 255.459 200.222V103.778C255.459 97.3227 252.003 91.362 246.401 88.1555L161.942 39.8135Z" fill="white" stroke="#222222" stroke-width="4"/>
<path d="M159.324 56.0994L234.689 98.1683C239.12 100.641 241.866 105.319 241.866 110.393V193.607C241.866 198.681 239.12 203.359 234.689 205.832L159.324 247.901C155.083 250.268 149.917 250.268 145.676 247.901L70.3107 205.832C65.88 203.359 63.1343 198.681 63.1343 193.607V110.393C63.1343 105.319 65.88 100.641 70.3107 98.1683L145.676 56.0994C149.917 53.7321 155.083 53.7321 159.324 56.0994Z" fill="#EFBD0B" stroke="#222222" stroke-width="4"/>
<path d="M145.172 64.3913C150.034 61.6637 155.966 61.6637 160.828 64.3913L226.828 101.416C231.875 104.247 235 109.583 235 115.37V188.63C235 194.417 231.875 199.753 226.828 202.584L160.828 239.609C155.966 242.336 150.034 242.336 145.172 239.609L79.172 202.584C74.1249 199.753 71 194.417 71 188.63V115.37C71 109.583 74.1249 104.247 79.172 101.416L145.172 64.3913Z" fill="#D0A200"/>
<rect x="44" y="127" width="216" height="55" rx="8" fill="#EFBD0B" stroke="#222222" stroke-width="4"/>
<path d="M100.311 145.34H116.081V149.9H107.151V153.852H114.675V157.956H107.151V162.364H116.043V167H100.311V145.34ZM121.831 158.07L117.461 149.52H123.769L126.923 156.284L130.115 149.52H136.385L132.053 158.07L136.803 167H130.457L126.923 159.78L123.389 167H117.043L121.831 158.07ZM150.315 149.14C152.139 149.14 153.583 149.748 154.647 150.964C155.736 152.155 156.281 154.245 156.281 157.234C156.281 159.463 156.066 161.287 155.635 162.706C155.204 164.099 154.71 165.024 154.153 165.48C153.596 165.936 152.62 166.303 151.227 166.582C149.859 166.861 148.44 167 146.971 167C146.54 167 145.818 166.975 144.805 166.924V172.32L138.307 172.586V149.52H143.627L144.273 152.218C144.932 151.281 145.768 150.533 146.781 149.976C147.82 149.419 148.998 149.14 150.315 149.14ZM148.795 162.364C149.074 162.161 149.276 161.591 149.403 160.654C149.53 159.691 149.593 158.779 149.593 157.918C149.593 156.499 149.416 155.448 149.061 154.764C148.706 154.08 147.997 153.738 146.933 153.738C146.173 153.738 145.464 153.814 144.805 153.966V162.402L145.869 162.516C146.198 162.541 146.667 162.554 147.275 162.554C148.136 162.554 148.643 162.491 148.795 162.364ZM169.431 162.44C170.064 162.44 171.242 162.377 172.965 162.25C173.193 162.25 173.611 162.225 174.219 162.174L174.789 166.088C172.838 167 170.305 167.456 167.189 167.456C164.275 167.456 162.033 166.721 160.463 165.252C158.917 163.783 158.145 161.566 158.145 158.602C158.145 157.082 158.335 155.613 158.715 154.194C159.12 152.775 159.576 151.787 160.083 151.23C160.615 150.673 161.603 150.191 163.047 149.786C164.491 149.381 165.922 149.178 167.341 149.178C169.621 149.178 171.331 149.583 172.471 150.394C173.611 151.205 174.358 152.332 174.713 153.776C175.067 155.195 175.245 157.107 175.245 159.514C173.522 159.615 171.837 159.666 170.191 159.666H164.795C164.795 160.477 164.959 161.085 165.289 161.49C165.643 161.895 166.137 162.161 166.771 162.288C167.404 162.389 168.291 162.44 169.431 162.44ZM165.175 153.7C165.023 153.776 164.909 154.105 164.833 154.688C164.757 155.271 164.706 155.929 164.681 156.664H166.657C167.847 156.664 168.709 156.651 169.241 156.626C169.241 155.41 169.063 154.549 168.709 154.042C168.379 153.535 167.797 153.282 166.961 153.282C166.277 153.282 165.681 153.421 165.175 153.7ZM188.362 149.14C188.691 149.14 189.033 149.178 189.388 149.254C189.768 149.33 190.046 149.419 190.224 149.52C190.224 150.077 190.16 151.002 190.034 152.294C189.907 153.561 189.793 154.46 189.692 154.992C189.438 154.967 188.97 154.954 188.286 154.954C186.69 154.954 185.271 155.043 184.03 155.22V167H177.532V149.52H182.966L183.726 152.332H183.764C184.498 151.369 185.284 150.597 186.12 150.014C186.956 149.431 187.703 149.14 188.362 149.14ZM199.986 159.818C199.986 160.274 199.999 160.755 200.024 161.262C200.049 161.743 200.125 162.047 200.252 162.174C200.429 162.351 201.05 162.44 202.114 162.44L203.406 162.402C203.634 163.618 203.748 165.024 203.748 166.62C203.267 166.797 202.557 166.962 201.62 167.114C200.708 167.266 199.834 167.342 198.998 167.342C197.25 167.342 195.895 166.962 194.932 166.202C193.995 165.417 193.526 164.213 193.526 162.592V153.244H190.676V149.786L193.526 149.52L195.236 145.34L199.986 145.074V149.52H204.014V153.244H199.986V159.818Z" fill="#222222"/>
<rect x="94" y="114" width="118" height="7" rx="3.5" fill="white"/>
<path d="M128 191C128 189.067 129.567 187.5 131.5 187.5H174.5C176.433 187.5 178 189.067 178 191V191C178 192.933 176.433 194.5 174.5 194.5H131.5C129.567 194.5 128 192.933 128 191V191Z" fill="white"/>
<path d="M152.416 71.5931C152.622 71.2542 153.114 71.2542 153.32 71.5931L157.552 78.565C157.626 78.687 157.746 78.7738 157.885 78.8057L165.874 80.6401C166.264 80.7295 166.417 81.2023 166.153 81.503L160.782 87.637C160.688 87.7453 160.641 87.8877 160.654 88.0311L161.362 96.1279C161.397 96.524 160.998 96.815 160.632 96.661L153.073 93.4862C152.942 93.4313 152.794 93.4313 152.663 93.4862L145.104 96.661C144.738 96.815 144.339 96.524 144.373 96.1279L145.082 88.0311C145.095 87.8877 145.048 87.7453 144.953 87.637L139.582 81.503C139.319 81.2023 139.472 80.7295 139.862 80.6401L147.851 78.8057C147.99 78.7738 148.11 78.687 148.184 78.565L152.416 71.5931Z" fill="#EFBD0B"/>
<path d="M180.416 84.7439C180.622 84.4051 181.114 84.4051 181.32 84.7439L185.552 91.7158C185.626 91.8378 185.746 91.9247 185.885 91.9566L193.874 93.7909C194.264 93.8804 194.417 94.3532 194.153 94.6539L188.782 100.788C188.688 100.896 188.641 101.039 188.654 101.182L189.362 109.279C189.397 109.675 188.998 109.966 188.632 109.812L181.073 106.637C180.942 106.582 180.794 106.582 180.663 106.637L173.104 109.812C172.738 109.966 172.339 109.675 172.373 109.279L173.082 101.182C173.095 101.039 173.048 100.896 172.953 100.788L167.582 94.6539C167.319 94.3532 167.472 93.8804 167.862 93.7909L175.851 91.9566C175.99 91.9247 176.11 91.8378 176.184 91.7158L180.416 84.7439Z" fill="#EFBD0B"/>
<path d="M152.416 202.744C152.622 202.405 153.114 202.405 153.32 202.744L157.552 209.716C157.626 209.838 157.746 209.925 157.885 209.957L165.874 211.791C166.264 211.88 166.417 212.353 166.153 212.654L160.782 218.788C160.688 218.896 160.641 219.039 160.654 219.182L161.362 227.279C161.397 227.675 160.998 227.966 160.632 227.812L153.073 224.637C152.942 224.582 152.794 224.582 152.663 224.637L145.104 227.812C144.738 227.966 144.339 227.675 144.373 227.279L145.082 219.182C145.095 219.039 145.048 218.896 144.953 218.788L139.582 212.654C139.319 212.353 139.472 211.88 139.862 211.791L147.851 209.957C147.99 209.925 148.11 209.838 148.184 209.716L152.416 202.744Z" fill="#EFBD0B"/>
<path d="M125.416 84.7439C125.622 84.4051 126.114 84.4051 126.32 84.7439L130.552 91.7158C130.626 91.8378 130.746 91.9247 130.885 91.9566L138.874 93.7909C139.264 93.8804 139.417 94.3532 139.153 94.6539L133.782 100.788C133.688 100.896 133.641 101.039 133.654 101.182L134.362 109.279C134.397 109.675 133.998 109.966 133.632 109.812L126.073 106.637C125.942 106.582 125.794 106.582 125.663 106.637L118.104 109.812C117.738 109.966 117.339 109.675 117.373 109.279L118.082 101.182C118.095 101.039 118.048 100.896 117.953 100.788L112.582 94.6539C112.319 94.3532 112.472 93.8804 112.862 93.7909L120.851 91.9566C120.99 91.9247 121.11 91.8378 121.184 91.7158L125.416 84.7439Z" fill="#EFBD0B"/>
</svg>
