<svg width="305" height="305" viewBox="0 0 305 305" fill="none" xmlns="http://www.w3.org/2000/svg">
<path d="M82.5 95H141.038L144.892 293.47C144.908 294.266 144.032 294.76 143.358 294.335L82.5 255.898V95Z" fill="#EFBD0B" stroke="#222222" stroke-width="4"/>
<path d="M225.714 96H167.175L163.321 294.47C163.306 295.266 164.182 295.76 164.855 295.335L225.714 256.898V96Z" fill="#EFBD0B" stroke="#222222" stroke-width="4"/>
<path d="M198.717 72.5638L276.702 100.979C282.929 103.247 286.138 110.135 283.869 116.362L272.4 147.837C263.797 171.448 237.683 183.614 214.073 175.011L167.564 158.065L198.717 72.5638Z" fill="#EFBD0B" stroke="#222222" stroke-width="4"/>
<path d="M105.823 72.5638L27.8387 100.979C21.6118 103.247 18.4031 110.135 20.672 116.362L32.1406 147.837C40.7434 171.448 66.8575 183.614 90.468 175.011L136.977 158.065L105.823 72.5638Z" fill="#EFBD0B" stroke="#222222" stroke-width="4"/>
<path d="M199.717 119.564L277.702 147.979C283.929 150.247 287.138 157.135 284.869 163.362L273.4 194.837C264.797 218.448 238.683 230.614 215.073 222.011L168.564 205.065L199.717 119.564Z" fill="#EFBD0B" stroke="#222222" stroke-width="4"/>
<path d="M106.823 119.564L28.8387 147.979C22.6118 150.247 19.4031 157.135 21.672 163.362L33.1406 194.837C41.7434 218.448 67.8575 230.614 91.468 222.011L137.977 205.065L106.823 119.564Z" fill="#EFBD0B" stroke="#222222" stroke-width="4"/>
<path d="M161.942 39.8135C156.402 36.6429 149.598 36.6429 144.058 39.8135L59.5994 88.1555C53.9973 91.362 50.5411 97.3227 50.5411 103.778V200.222C50.5411 206.677 53.9973 212.638 59.5994 215.844L144.058 264.186C149.598 267.357 156.402 267.357 161.942 264.186L246.401 215.844C252.003 212.638 255.459 206.677 255.459 200.222V103.778C255.459 97.3227 252.003 91.362 246.401 88.1555L161.942 39.8135Z" fill="white" stroke="#222222" stroke-width="4"/>
<path d="M145.676 56.0994C149.917 53.7321 155.083 53.7321 159.324 56.0994L234.689 98.1683C239.12 100.641 241.866 105.319 241.866 110.393V193.607C241.866 198.681 239.12 203.359 234.689 205.832L159.324 247.901C155.083 250.268 149.917 250.268 145.676 247.901L70.3107 205.832C65.88 203.359 63.1343 198.681 63.1343 193.607V110.393C63.1343 105.319 65.88 100.641 70.3107 98.1683L145.676 56.0994Z" fill="#6339DC" stroke="#222222" stroke-width="4"/>
<rect x="44" y="127" width="216" height="55" rx="8" fill="#EFBD0B" stroke="#222222" stroke-width="4"/>
<path d="M100.311 145.34H116.081V149.9H107.151V153.852H114.675V157.956H107.151V162.364H116.043V167H100.311V145.34ZM121.831 158.07L117.461 149.52H123.769L126.923 156.284L130.115 149.52H136.385L132.053 158.07L136.803 167H130.457L126.923 159.78L123.389 167H117.043L121.831 158.07ZM150.315 149.14C152.139 149.14 153.583 149.748 154.647 150.964C155.736 152.155 156.281 154.245 156.281 157.234C156.281 159.463 156.066 161.287 155.635 162.706C155.204 164.099 154.71 165.024 154.153 165.48C153.596 165.936 152.62 166.303 151.227 166.582C149.859 166.861 148.44 167 146.971 167C146.54 167 145.818 166.975 144.805 166.924V172.32L138.307 172.586V149.52H143.627L144.273 152.218C144.932 151.281 145.768 150.533 146.781 149.976C147.82 149.419 148.998 149.14 150.315 149.14ZM148.795 162.364C149.074 162.161 149.276 161.591 149.403 160.654C149.53 159.691 149.593 158.779 149.593 157.918C149.593 156.499 149.416 155.448 149.061 154.764C148.706 154.08 147.997 153.738 146.933 153.738C146.173 153.738 145.464 153.814 144.805 153.966V162.402L145.869 162.516C146.198 162.541 146.667 162.554 147.275 162.554C148.136 162.554 148.643 162.491 148.795 162.364ZM169.431 162.44C170.064 162.44 171.242 162.377 172.965 162.25C173.193 162.25 173.611 162.225 174.219 162.174L174.789 166.088C172.838 167 170.305 167.456 167.189 167.456C164.275 167.456 162.033 166.721 160.463 165.252C158.917 163.783 158.145 161.566 158.145 158.602C158.145 157.082 158.335 155.613 158.715 154.194C159.12 152.775 159.576 151.787 160.083 151.23C160.615 150.673 161.603 150.191 163.047 149.786C164.491 149.381 165.922 149.178 167.341 149.178C169.621 149.178 171.331 149.583 172.471 150.394C173.611 151.205 174.358 152.332 174.713 153.776C175.067 155.195 175.245 157.107 175.245 159.514C173.522 159.615 171.837 159.666 170.191 159.666H164.795C164.795 160.477 164.959 161.085 165.289 161.49C165.643 161.895 166.137 162.161 166.771 162.288C167.404 162.389 168.291 162.44 169.431 162.44ZM165.175 153.7C165.023 153.776 164.909 154.105 164.833 154.688C164.757 155.271 164.706 155.929 164.681 156.664H166.657C167.847 156.664 168.709 156.651 169.241 156.626C169.241 155.41 169.063 154.549 168.709 154.042C168.379 153.535 167.797 153.282 166.961 153.282C166.277 153.282 165.681 153.421 165.175 153.7ZM188.362 149.14C188.691 149.14 189.033 149.178 189.388 149.254C189.768 149.33 190.046 149.419 190.224 149.52C190.224 150.077 190.16 151.002 190.034 152.294C189.907 153.561 189.793 154.46 189.692 154.992C189.438 154.967 188.97 154.954 188.286 154.954C186.69 154.954 185.271 155.043 184.03 155.22V167H177.532V149.52H182.966L183.726 152.332H183.764C184.498 151.369 185.284 150.597 186.12 150.014C186.956 149.431 187.703 149.14 188.362 149.14ZM199.986 159.818C199.986 160.274 199.999 160.755 200.024 161.262C200.049 161.743 200.125 162.047 200.252 162.174C200.429 162.351 201.05 162.44 202.114 162.44L203.406 162.402C203.634 163.618 203.748 165.024 203.748 166.62C203.267 166.797 202.557 166.962 201.62 167.114C200.708 167.266 199.834 167.342 198.998 167.342C197.25 167.342 195.895 166.962 194.932 166.202C193.995 165.417 193.526 164.213 193.526 162.592V153.244H190.676V149.786L193.526 149.52L195.236 145.34L199.986 145.074V149.52H204.014V153.244H199.986V159.818Z" fill="#222222"/>
<rect x="94" y="110" width="118" height="7" rx="3.5" fill="white"/>
<rect x="128" y="193" width="50" height="7" rx="3.5" fill="white"/>
<path d="M152.755 62.9496C152.806 62.8648 152.929 62.8648 152.981 62.9496L153.32 62.7439L152.981 62.9496L157.213 69.9215L157.552 69.7158L157.213 69.9215C157.343 70.1349 157.553 70.2869 157.796 70.3428L165.786 72.1771C165.883 72.1995 165.921 72.3177 165.855 72.3929L160.484 78.5269C160.318 78.7164 160.237 78.9655 160.259 79.2166L160.968 87.3133C160.976 87.4123 160.877 87.4851 160.785 87.4466L153.226 84.2718C152.997 84.1756 152.739 84.1756 152.51 84.2718L144.951 87.4466C144.859 87.4851 144.759 87.4123 144.768 87.3133L145.477 79.2166C145.499 78.9655 145.417 78.7164 145.252 78.5269L139.88 72.3929C139.815 72.3177 139.853 72.1995 139.95 72.1771L147.939 70.3428C148.183 70.2869 148.393 70.1349 148.523 69.9215L152.755 62.9496L152.416 62.7439L152.755 62.9496Z" fill="#EFBD0B" stroke="#6339DC" stroke-width="0.792453"/>
<path d="M150.755 58.9496C150.806 58.8648 150.929 58.8648 150.981 58.9496L151.32 58.7439L150.981 58.9496L155.213 65.9215L155.552 65.7158L155.213 65.9215C155.343 66.1349 155.553 66.2869 155.796 66.3428L163.786 68.1771C163.883 68.1995 163.921 68.3177 163.855 68.3929L158.484 74.5269C158.318 74.7164 158.237 74.9655 158.259 75.2166L158.968 83.3133C158.976 83.4123 158.877 83.4851 158.785 83.4466L151.226 80.2718C150.997 80.1756 150.739 80.1756 150.51 80.2718L142.951 83.4466C142.859 83.4851 142.759 83.4123 142.768 83.3133L143.477 75.2166C143.499 74.9655 143.417 74.7164 143.252 74.5269L137.88 68.3929C137.815 68.3177 137.853 68.1995 137.95 68.1771L145.939 66.3428C146.183 66.2869 146.393 66.1349 146.523 65.9215L150.755 58.9496L150.416 58.7439L150.755 58.9496Z" fill="#EFBD0B" stroke="#6339DC" stroke-width="0.792453"/>
<path d="M178.755 82.9496C178.806 82.8648 178.929 82.8648 178.981 82.9496L179.32 82.7439L178.981 82.9496L183.213 89.9215L183.552 89.7158L183.213 89.9215C183.343 90.1349 183.553 90.2869 183.796 90.3428L191.786 92.1771C191.883 92.1995 191.921 92.3177 191.855 92.3929L186.484 98.5269C186.318 98.7164 186.237 98.9655 186.259 99.2166L186.968 107.313C186.976 107.412 186.877 107.485 186.785 107.447L179.226 104.272C178.997 104.176 178.739 104.176 178.51 104.272L170.951 107.447C170.859 107.485 170.759 107.412 170.768 107.313L171.477 99.2166C171.499 98.9655 171.417 98.7164 171.252 98.5269L165.88 92.3929C165.815 92.3177 165.853 92.1995 165.95 92.1771L173.939 90.3428C174.183 90.2869 174.393 90.1349 174.523 89.9215L178.755 82.9496L178.416 82.7439L178.755 82.9496Z" fill="#EFBD0B" stroke="#6339DC" stroke-width="0.792453"/>
<path d="M152.755 202.95C152.806 202.865 152.929 202.865 152.981 202.95L153.32 202.744L152.981 202.95L157.213 209.921L157.552 209.716L157.213 209.921C157.343 210.135 157.553 210.287 157.796 210.343L165.786 212.177C165.883 212.199 165.921 212.318 165.855 212.393L160.484 218.527C160.318 218.716 160.237 218.966 160.259 219.217L160.968 227.313C160.976 227.412 160.877 227.485 160.785 227.447L153.226 224.272C152.997 224.176 152.739 224.176 152.51 224.272L144.951 227.447C144.859 227.485 144.759 227.412 144.768 227.313L145.477 219.217C145.499 218.966 145.417 218.716 145.252 218.527L139.88 212.393C139.815 212.318 139.853 212.199 139.95 212.177L147.939 210.343C148.183 210.287 148.393 210.135 148.523 209.921L152.755 202.95L152.416 202.744L152.755 202.95Z" fill="#EFBD0B" stroke="#6339DC" stroke-width="0.792453"/>
<path d="M176.755 78.9496C176.806 78.8648 176.929 78.8648 176.981 78.9496L177.32 78.7439L176.981 78.9496L181.213 85.9215L181.552 85.7158L181.213 85.9215C181.343 86.1349 181.553 86.2869 181.796 86.3428L189.786 88.1771C189.883 88.1995 189.921 88.3177 189.855 88.3929L184.484 94.5269C184.318 94.7164 184.237 94.9655 184.259 95.2166L184.968 103.313C184.976 103.412 184.877 103.485 184.785 103.447L177.226 100.272C176.997 100.176 176.739 100.176 176.51 100.272L168.951 103.447C168.859 103.485 168.759 103.412 168.768 103.313L169.477 95.2166C169.499 94.9655 169.417 94.7164 169.252 94.5269L163.88 88.3929C163.815 88.3177 163.853 88.1995 163.95 88.1771L171.939 86.3428C172.183 86.2869 172.393 86.1349 172.523 85.9215L176.755 78.9496L176.416 78.7439L176.755 78.9496Z" fill="#EFBD0B" stroke="#6339DC" stroke-width="0.792453"/>
<path d="M125.755 82.9496C125.806 82.8648 125.929 82.8648 125.981 82.9496L126.32 82.7439L125.981 82.9496L130.213 89.9215L130.552 89.7158L130.213 89.9215C130.343 90.1349 130.553 90.2869 130.796 90.3428L138.786 92.1771C138.883 92.1995 138.921 92.3177 138.855 92.3929L133.484 98.5269C133.318 98.7164 133.237 98.9655 133.259 99.2166L133.968 107.313C133.976 107.412 133.877 107.485 133.785 107.447L126.226 104.272C125.997 104.176 125.739 104.176 125.51 104.272L117.951 107.447C117.859 107.485 117.759 107.412 117.768 107.313L118.477 99.2166C118.499 98.9655 118.417 98.7164 118.252 98.5269L112.88 92.3929C112.815 92.3177 112.853 92.1995 112.95 92.1771L120.939 90.3428C121.183 90.2869 121.393 90.1349 121.523 89.9215L125.755 82.9496L125.416 82.7439L125.755 82.9496Z" fill="#EFBD0B" stroke="#6339DC" stroke-width="0.792453"/>
<path d="M123.755 78.9496C123.806 78.8648 123.929 78.8648 123.981 78.9496L124.32 78.7439L123.981 78.9496L128.213 85.9215L128.552 85.7158L128.213 85.9215C128.343 86.1349 128.553 86.2869 128.796 86.3428L136.786 88.1771C136.883 88.1995 136.921 88.3177 136.855 88.3929L131.484 94.5269C131.318 94.7164 131.237 94.9655 131.259 95.2166L131.968 103.313C131.976 103.412 131.877 103.485 131.785 103.447L124.226 100.272C123.997 100.176 123.739 100.176 123.51 100.272L115.951 103.447C115.859 103.485 115.759 103.412 115.768 103.313L116.477 95.2166C116.499 94.9655 116.417 94.7164 116.252 94.5269L110.88 88.3929C110.815 88.3177 110.853 88.1995 110.95 88.1771L118.939 86.3428C119.183 86.2869 119.393 86.1349 119.523 85.9215L123.755 78.9496L123.416 78.7439L123.755 78.9496Z" fill="#EFBD0B" stroke="#6339DC" stroke-width="0.792453"/>
</svg>
