<svg width="305" height="305" viewBox="0 0 305 305" fill="none" xmlns="http://www.w3.org/2000/svg">
<path d="M152.809 171.083C153.153 170.659 153.801 170.659 154.145 171.083L173.154 194.546C173.278 194.699 173.346 194.89 173.346 195.087V246.552C173.346 246.749 173.278 246.94 173.154 247.094L154.145 270.557C153.801 270.981 153.153 270.981 152.809 270.557L133.801 247.094L132.465 248.176L133.801 247.094C133.677 246.94 133.609 246.749 133.609 246.552V195.087C133.609 194.89 133.677 194.699 133.801 194.546L152.809 171.083Z" fill="#EFBD0B" stroke="#222222" stroke-width="3.4382"/>
<path d="M160.304 32.4183C155.542 29.693 149.693 29.693 144.932 32.4183L72.3354 73.9707C67.5201 76.7269 64.5492 81.8504 64.5492 87.3986V170.298C64.5492 175.846 67.5201 180.97 72.3354 183.726L144.932 225.278C149.693 228.003 155.542 228.003 160.304 225.278L232.9 183.726C237.715 180.97 240.686 175.846 240.686 170.298V87.3986C240.686 81.8504 237.715 76.7269 232.9 73.9707L160.304 32.4183Z" fill="#EFBD0B" stroke="#222222" stroke-width="3.4382"/>
<path d="M77.837 86.7303H128.55V243.713C128.55 244.385 127.813 244.797 127.241 244.445L77.837 214.067V86.7303Z" fill="#EFBD0B" stroke="#222222" stroke-width="3.4382"/>
<path d="M229.977 85.011H179.264V243.687C179.264 244.361 180.005 244.773 180.577 244.417L229.977 213.722V85.011Z" fill="#EFBD0B" stroke="#222222" stroke-width="3.4382"/>
<path d="M192.774 71.7431L259.805 96.1669C265.158 98.1172 267.916 104.037 265.966 109.389L256.108 136.444C248.713 156.739 226.267 167.196 205.972 159.802L165.996 145.236L192.774 71.7431Z" fill="#EFBD0B" stroke="#222222" stroke-width="3.4382"/>
<path d="M112.927 71.7431L45.8951 96.1669C40.5427 98.1172 37.7847 104.037 39.7349 109.389L49.5928 136.444C56.9873 156.739 79.4336 167.196 99.728 159.802L139.705 145.236L112.927 71.7431Z" fill="#EFBD0B" stroke="#222222" stroke-width="3.4382"/>
<path d="M193.633 112.142L260.665 136.566C266.017 138.516 268.775 144.436 266.825 149.788L256.967 176.843C249.573 197.137 227.126 207.595 206.832 200.2L166.855 185.634L193.633 112.142Z" fill="#EFBD0B" stroke="#222222" stroke-width="3.4382"/>
<path d="M113.786 112.142L46.7546 136.566C41.4022 138.516 38.6442 144.436 40.5944 149.788L50.4523 176.843C57.8468 197.137 80.2931 207.595 100.588 200.2L140.564 185.634L113.786 112.142Z" fill="#EFBD0B" stroke="#222222" stroke-width="3.4382"/>
<path d="M161.163 43.5924C156.402 40.8671 150.553 40.8671 145.792 43.5924L73.1949 85.1448C68.3796 87.9009 65.4088 93.0244 65.4088 98.5727V181.472C65.4088 187.02 68.3796 192.144 73.1949 194.9L145.792 236.452C150.553 239.177 156.402 239.177 161.163 236.452L233.76 194.9C238.575 192.144 241.546 187.02 241.546 181.472V98.5727C241.546 93.0244 238.575 87.9009 233.76 85.1448L161.163 43.5924Z" fill="white" stroke="#222222" stroke-width="3.4382"/>
<path d="M147.182 57.5912C150.828 55.5563 155.267 55.5563 158.913 57.5911L223.693 93.7514C227.502 95.8773 229.862 99.8974 229.862 104.259V175.786C229.862 180.147 227.502 184.168 223.693 186.293L158.913 222.454C155.267 224.489 150.828 224.489 147.182 222.454L82.4018 186.293C78.5934 184.168 76.2334 180.147 76.2334 175.786V104.259C76.2334 99.8974 78.5934 95.8773 82.4018 93.7514L147.182 57.5912Z" fill="#8466B0" stroke="#222222" stroke-width="3.4382"/>
<path d="M145.221 65.3276C150.058 62.6367 155.942 62.6367 160.779 65.3276L215.779 95.9261C220.853 98.7494 224 104.101 224 109.908V170.092C224 175.899 220.853 181.251 215.779 184.074L160.779 214.672C155.942 217.363 150.058 217.363 145.221 214.672L90.2214 184.074C85.1466 181.251 82 175.899 82 170.092V109.908C82 104.101 85.1466 98.7494 90.2214 95.9261L145.221 65.3276Z" fill="#715995"/>
<rect x="59.7865" y="118.534" width="185.663" height="47.2752" rx="6.8764" fill="#EFBD0B" stroke="#222222" stroke-width="3.4382"/>
<path d="M85.6099 141.53V150.045C84.2753 150.484 83.0104 150.802 81.8152 151.002C80.62 151.201 79.614 151.3 78.7973 151.3C76.0882 151.3 73.9667 150.593 72.4329 149.179C70.8991 147.765 70.1321 145.593 70.1321 142.665C70.1321 139.677 70.9389 137.446 72.5524 135.972C74.1659 134.478 76.4368 133.731 79.365 133.731C80.8989 133.731 82.7415 133.96 84.8928 134.418C84.8928 134.817 84.853 135.414 84.7733 136.211C84.6936 136.988 84.6139 137.536 84.5343 137.854L83.4586 137.825C82.1439 137.785 81.118 137.765 80.381 137.765C78.1698 137.765 76.9647 137.894 76.7655 138.153C76.4468 138.532 76.2177 139.119 76.0782 139.916C75.9587 140.713 75.899 141.48 75.899 142.217C75.899 143.551 76.0484 144.587 76.3472 145.324C76.646 146.061 77.1041 146.579 77.7216 146.878C78.3392 147.177 79.1758 147.326 80.2316 147.326H80.3511V141.53H85.6099ZM96.3968 136.928C96.6558 136.928 96.9247 136.958 97.2036 137.018C97.5024 137.078 97.7215 137.147 97.861 137.227C97.861 137.665 97.8112 138.392 97.7116 139.408C97.612 140.404 97.5223 141.111 97.4426 141.53C97.2434 141.51 96.8749 141.5 96.3371 141.5C95.0821 141.5 93.9666 141.569 92.9905 141.709V150.972H87.8811V137.227H92.1539L92.7515 139.438H92.7814C93.359 138.681 93.9766 138.073 94.6339 137.615C95.2913 137.157 95.8789 136.928 96.3968 136.928ZM106.485 150.972L106.007 149.089C105.091 150.583 103.816 151.33 102.183 151.33C100.848 151.33 99.7523 150.962 98.8958 150.225C98.0591 149.468 97.6408 148.412 97.6408 147.057C97.6408 146.221 97.8799 145.494 98.3579 144.876C98.8559 144.239 99.5332 143.791 100.39 143.532C101.505 143.213 103.228 143.034 105.559 142.994C105.559 141.679 105.499 140.982 105.38 140.902C105.28 140.822 104.961 140.783 104.424 140.783C104.085 140.783 103.617 140.803 103.019 140.842C102.063 140.882 100.768 140.992 99.1348 141.171C98.9755 140.095 98.8559 138.94 98.7763 137.705C99.832 137.486 100.938 137.307 102.093 137.167C103.248 137.008 104.284 136.928 105.2 136.928C106.794 136.928 107.989 137.197 108.786 137.735C109.583 138.253 110.101 138.94 110.34 139.797C110.579 140.653 110.688 141.739 110.668 143.053L110.639 147.446L110.728 150.972H106.485ZM103.916 147.984C104.434 147.984 104.981 147.884 105.559 147.685V145.474H105.32C103.846 145.474 103.029 145.553 102.87 145.713C102.77 145.812 102.691 145.962 102.631 146.161C102.591 146.36 102.571 146.549 102.571 146.729C102.571 147.207 102.681 147.535 102.9 147.715C103.119 147.894 103.457 147.984 103.916 147.984ZM126.272 138.093C126.451 138.313 126.581 138.86 126.661 139.737C126.76 140.613 126.81 141.948 126.81 143.741V150.972H121.7V143.8V142.575C121.7 141.938 121.651 141.54 121.551 141.38C121.392 141.181 121.023 141.081 120.446 141.081C120.167 141.081 119.957 141.091 119.818 141.111C119.26 141.131 118.683 141.261 118.085 141.5V150.972H112.976V137.227H117.129L117.697 139.528C119.131 137.795 120.844 136.928 122.836 136.928C123.553 136.928 124.22 137.028 124.838 137.227C125.475 137.426 125.953 137.715 126.272 138.093ZM142.855 132.835V150.972H138.642L138.224 148.671C137.825 149.448 137.238 150.065 136.461 150.523C135.684 150.982 134.808 151.211 133.832 151.211C132.278 151.211 131.033 150.653 130.097 149.537C129.18 148.422 128.722 146.749 128.722 144.518C128.722 142.824 128.921 141.43 129.32 140.334C129.718 139.239 130.186 138.452 130.724 137.974C131.063 137.675 131.75 137.426 132.786 137.227C133.841 137.028 134.778 136.928 135.594 136.928C136.312 136.928 137.049 136.998 137.806 137.137C137.746 136.181 137.716 135.653 137.716 135.554V133.044L142.855 132.835ZM136.073 147.207C136.61 147.207 137.168 147.117 137.746 146.938V140.454C137.168 140.374 136.531 140.334 135.833 140.334C135.236 140.334 134.857 140.384 134.698 140.484C134.479 140.643 134.3 141.101 134.16 141.858C134.041 142.595 133.981 143.372 133.981 144.189C133.981 145.404 134.16 146.211 134.519 146.609C134.897 147.008 135.415 147.207 136.073 147.207ZM172.031 150.972H167.011L166.623 141.589C166.563 139.737 166.493 138.332 166.414 137.376H166.324C166.085 138.133 165.806 139.309 165.487 140.902L165.338 141.649L163.276 150.972H158.256L156.523 142.575L156.224 141.081C155.806 139.229 155.517 137.994 155.358 137.376H155.268C155.189 138.372 155.119 139.996 155.059 142.247C155.039 142.386 155.029 142.605 155.029 142.904L154.76 150.972H149.711L150.428 133.94H158.973L160.438 141.291L160.796 143.263C160.955 142.645 161.105 141.958 161.244 141.201L162.619 133.94H171.344L172.031 150.972ZM182.586 150.972L182.108 149.089C181.191 150.583 179.917 151.33 178.283 151.33C176.948 151.33 175.853 150.962 174.996 150.225C174.16 149.468 173.741 148.412 173.741 147.057C173.741 146.221 173.98 145.494 174.458 144.876C174.956 144.239 175.634 143.791 176.49 143.532C177.606 143.213 179.329 143.034 181.66 142.994C181.66 141.679 181.6 140.982 181.48 140.902C181.381 140.822 181.062 140.783 180.524 140.783C180.185 140.783 179.717 140.803 179.12 140.842C178.164 140.882 176.869 140.992 175.235 141.171C175.076 140.095 174.956 138.94 174.877 137.705C175.933 137.486 177.038 137.307 178.193 137.167C179.349 137.008 180.385 136.928 181.301 136.928C182.895 136.928 184.09 137.197 184.887 137.735C185.683 138.253 186.201 138.94 186.44 139.797C186.679 140.653 186.789 141.739 186.769 143.053L186.739 147.446L186.829 150.972H182.586ZM180.016 147.984C180.534 147.984 181.082 147.884 181.66 147.685V145.474H181.42C179.946 145.474 179.13 145.553 178.97 145.713C178.871 145.812 178.791 145.962 178.731 146.161C178.691 146.36 178.672 146.549 178.672 146.729C178.672 147.207 178.781 147.535 179 147.715C179.219 147.894 179.558 147.984 180.016 147.984ZM200.191 146.31C200.191 148.083 199.624 149.358 198.488 150.135C197.373 150.912 195.779 151.3 193.707 151.3C192.253 151.3 190.58 151.091 188.688 150.673C188.727 150.274 188.817 149.707 188.957 148.97C189.116 148.213 189.245 147.635 189.345 147.237C190.062 147.356 190.859 147.456 191.735 147.535C192.612 147.595 193.359 147.625 193.976 147.625C194.514 147.625 194.843 147.595 194.962 147.535C194.982 147.516 195.002 147.466 195.022 147.386C195.062 147.286 195.082 147.187 195.082 147.087C195.082 146.689 194.833 146.42 194.335 146.281C194.176 146.241 193.568 146.071 192.512 145.773C191.456 145.474 190.59 144.936 189.913 144.159C189.255 143.362 188.927 142.376 188.927 141.201C188.927 140.583 189.066 139.896 189.345 139.139C189.624 138.382 189.923 137.904 190.241 137.705C190.48 137.546 191.058 137.386 191.974 137.227C192.891 137.048 193.737 136.958 194.514 136.958C196.168 136.958 197.831 137.078 199.504 137.317C199.504 137.675 199.454 138.283 199.355 139.139C199.255 139.976 199.166 140.504 199.086 140.723C197.393 140.504 196.028 140.394 194.992 140.394C194.454 140.394 194.106 140.424 193.946 140.484C193.907 140.504 193.867 140.563 193.827 140.663C193.787 140.743 193.767 140.852 193.767 140.992C193.767 141.271 193.857 141.47 194.036 141.589C194.215 141.729 194.684 141.898 195.44 142.097C196.337 142.356 197.104 142.625 197.741 142.904C198.399 143.183 198.966 143.601 199.444 144.159C199.942 144.717 200.191 145.434 200.191 146.31ZM208.22 145.324C208.22 145.683 208.23 146.061 208.25 146.46C208.27 146.838 208.33 147.077 208.43 147.177C208.569 147.316 209.057 147.386 209.894 147.386L210.91 147.356C211.089 148.312 211.179 149.418 211.179 150.673C210.8 150.812 210.242 150.942 209.505 151.061C208.788 151.181 208.101 151.241 207.444 151.241C206.069 151.241 205.003 150.942 204.246 150.344C203.509 149.727 203.141 148.78 203.141 147.506V140.155H200.9V137.436L203.141 137.227L204.485 133.94L208.22 133.731V137.227H211.388V140.155H208.22V145.324ZM221.252 147.386C221.75 147.386 222.677 147.336 224.031 147.237C224.21 147.237 224.539 147.217 225.017 147.177L225.465 150.255C223.932 150.972 221.94 151.33 219.489 151.33C217.199 151.33 215.436 150.753 214.201 149.597C212.986 148.442 212.378 146.699 212.378 144.368C212.378 143.173 212.527 142.018 212.826 140.902C213.145 139.787 213.503 139.01 213.902 138.571C214.32 138.133 215.097 137.755 216.232 137.436C217.368 137.117 218.493 136.958 219.609 136.958C221.402 136.958 222.746 137.277 223.643 137.914C224.539 138.552 225.127 139.438 225.406 140.573C225.685 141.689 225.824 143.193 225.824 145.085C224.469 145.165 223.145 145.205 221.85 145.205H217.607C217.607 145.842 217.736 146.32 217.995 146.639C218.274 146.958 218.663 147.167 219.161 147.267C219.659 147.346 220.356 147.386 221.252 147.386ZM217.906 140.514C217.786 140.573 217.697 140.832 217.637 141.291C217.577 141.749 217.537 142.267 217.517 142.844H219.071C220.007 142.844 220.685 142.834 221.103 142.814C221.103 141.858 220.963 141.181 220.685 140.783C220.426 140.384 219.967 140.185 219.31 140.185C218.772 140.185 218.304 140.295 217.906 140.514ZM236.138 136.928C236.397 136.928 236.666 136.958 236.945 137.018C237.244 137.078 237.463 137.147 237.602 137.227C237.602 137.665 237.552 138.392 237.453 139.408C237.353 140.404 237.264 141.111 237.184 141.53C236.985 141.51 236.616 141.5 236.078 141.5C234.823 141.5 233.708 141.569 232.732 141.709V150.972H227.622V137.227H231.895L232.493 139.438H232.523C233.1 138.681 233.718 138.073 234.375 137.615C235.033 137.157 235.62 136.928 236.138 136.928Z" fill="#222222"/>
<rect x="102.764" y="103.921" width="101.427" height="6.01685" rx="3.00842" fill="white"/>
<rect x="131.989" y="175.264" width="42.9775" height="6.01685" rx="3.00842" fill="white"/>
<path d="M152.532 67.6395C152.709 67.3482 153.132 67.3482 153.308 67.6395L156.946 73.6322C157.01 73.737 157.113 73.8116 157.233 73.8391L164.1 75.4158C164.435 75.4927 164.566 75.8991 164.34 76.1575L159.723 81.43C159.642 81.5231 159.602 81.6455 159.612 81.7688L160.222 88.7283C160.251 89.0689 159.909 89.319 159.593 89.1866L153.096 86.4577C152.984 86.4105 152.857 86.4105 152.744 86.4577L146.247 89.1866C145.932 89.319 145.589 89.0689 145.619 88.7283L146.228 81.7688C146.239 81.6455 146.199 81.5231 146.117 81.43L141.501 76.1575C141.274 75.8991 141.406 75.4927 141.741 75.4158L148.608 73.8391C148.727 73.8116 148.831 73.737 148.894 73.6322L152.532 67.6395Z" fill="#EFBD0B"/>
<path d="M175.324 80.4932C175.501 80.2019 175.924 80.2019 176.1 80.4932L179.738 86.4859C179.802 86.5908 179.905 86.6654 180.025 86.6929L186.892 88.2696C187.227 88.3464 187.358 88.7528 187.132 89.0113L182.515 94.2838C182.434 94.3769 182.394 94.4993 182.404 94.6225L183.014 101.582C183.043 101.923 182.701 102.173 182.385 102.04L175.888 99.3115C175.776 99.2642 175.649 99.2642 175.536 99.3115L169.039 102.04C168.724 102.173 168.381 101.923 168.411 101.582L169.02 94.6225C169.031 94.4993 168.991 94.3769 168.909 94.2838L164.293 89.0113C164.066 88.7528 164.198 88.3464 164.533 88.2696L171.4 86.6929C171.519 86.6654 171.623 86.5908 171.686 86.4859L175.324 80.4932Z" fill="#EFBD0B"/>
<path d="M152.976 183.639C153.152 183.348 153.575 183.348 153.752 183.639L157.39 189.632C157.453 189.737 157.557 189.811 157.676 189.839L164.543 191.416C164.878 191.492 165.01 191.899 164.783 192.157L160.167 197.43C160.085 197.523 160.045 197.645 160.056 197.769L160.665 204.728C160.695 205.069 160.352 205.319 160.037 205.186L153.54 202.457C153.427 202.41 153.3 202.41 153.188 202.457L146.691 205.186C146.375 205.319 146.033 205.069 146.062 204.728L146.672 197.769C146.682 197.645 146.642 197.523 146.561 197.43L141.944 192.157C141.718 191.899 141.849 191.492 142.184 191.416L149.051 189.839C149.171 189.811 149.274 189.737 149.338 189.632L152.976 183.639Z" fill="#EFBD0B"/>
<path d="M129.768 80.4932C129.945 80.2019 130.367 80.2019 130.544 80.4932L134.182 86.4859C134.246 86.5908 134.349 86.6654 134.469 86.6929L141.336 88.2696C141.67 88.3464 141.802 88.7528 141.576 89.0113L136.959 94.2838C136.877 94.3769 136.837 94.4993 136.848 94.6225L137.457 101.582C137.487 101.923 137.144 102.173 136.829 102.04L130.332 99.3115C130.219 99.2642 130.093 99.2642 129.98 99.3115L123.483 102.04C123.168 102.173 122.825 101.923 122.855 101.582L123.464 94.6225C123.475 94.4993 123.435 94.3769 123.353 94.2838L118.736 89.0113C118.51 88.7528 118.642 88.3464 118.976 88.2696L125.843 86.6929C125.963 86.6654 126.066 86.5908 126.13 86.4859L129.768 80.4932Z" fill="#EFBD0B"/>
</svg>
