<svg width="305" height="305" viewBox="0 0 305 305" fill="none" xmlns="http://www.w3.org/2000/svg">
<path d="M198.717 72.5638L276.702 100.979C282.929 103.247 286.138 110.135 283.869 116.362L272.4 147.837C263.797 171.448 237.683 183.614 214.073 175.011L167.564 158.065L198.717 72.5638Z" fill="#EFBD0B" stroke="#222222" stroke-width="4"/>
<path d="M105.823 72.5638L27.8387 100.979C21.6118 103.247 18.4031 110.135 20.672 116.362L32.1406 147.837C40.7434 171.448 66.8575 183.614 90.468 175.011L136.977 158.065L105.823 72.5638Z" fill="#EFBD0B" stroke="#222222" stroke-width="4"/>
<path d="M161.942 39.8135C156.402 36.6429 149.598 36.6429 144.058 39.8135L59.5994 88.1555C53.9973 91.362 50.5411 97.3227 50.5411 103.778V200.222C50.5411 206.677 53.9973 212.638 59.5994 215.844L144.058 264.186C149.598 267.357 156.402 267.357 161.942 264.186L246.401 215.844C252.003 212.638 255.459 206.677 255.459 200.222V103.778C255.459 97.3227 252.003 91.362 246.401 88.1555L161.942 39.8135Z" fill="white" stroke="#222222" stroke-width="4"/>
<path d="M145.676 56.0994C149.917 53.7321 155.083 53.7321 159.324 56.0994L234.689 98.1683C239.12 100.641 241.866 105.319 241.866 110.393V193.607C241.866 198.681 239.12 203.359 234.689 205.832L159.324 247.901C155.083 250.268 149.917 250.268 145.676 247.901L70.3107 205.832C65.88 203.359 63.1343 198.681 63.1343 193.607V110.393C63.1343 105.319 65.88 100.641 70.3107 98.1683L145.676 56.0994Z" fill="#CD7F32" stroke="#363131" stroke-width="4"/>
<path d="M169.93 69.9388C170.19 69.5112 170.81 69.5112 171.07 69.9388L176.411 78.7367C176.504 78.8906 176.656 79.0002 176.831 79.0405L186.913 81.3552C187.404 81.4681 187.597 82.0647 187.265 82.4442L180.487 90.1847C180.368 90.3214 180.309 90.501 180.325 90.682L181.219 100.899C181.263 101.399 180.76 101.766 180.297 101.572L170.758 97.5659C170.593 97.4965 170.407 97.4965 170.242 97.5659L160.703 101.572C160.24 101.766 159.737 101.399 159.781 100.899L160.675 90.682C160.691 90.501 160.632 90.3214 160.513 90.1847L153.735 82.4442C153.403 82.0648 153.596 81.4681 154.087 81.3552L164.169 79.0405C164.344 79.0002 164.496 78.8906 164.589 78.7367L169.93 69.9388Z" fill="#EFBD0B"/>
<path d="M133.93 69.9388C134.19 69.5112 134.81 69.5112 135.07 69.9388L140.411 78.7367C140.504 78.8906 140.656 79.0002 140.831 79.0405L150.913 81.3552C151.404 81.4681 151.597 82.0647 151.265 82.4442L144.487 90.1847C144.368 90.3214 144.309 90.501 144.325 90.682L145.219 100.899C145.263 101.399 144.76 101.766 144.297 101.572L134.758 97.5659C134.593 97.4965 134.407 97.4965 134.242 97.5659L124.703 101.572C124.24 101.766 123.737 101.399 123.781 100.899L124.675 90.682C124.691 90.501 124.632 90.3214 124.513 90.1847L117.735 82.4442C117.403 82.0648 117.596 81.4681 118.087 81.3552L128.169 79.0405C128.344 79.0002 128.496 78.8906 128.589 78.7367L133.93 69.9388Z" fill="#EFBD0B"/>
<rect x="44" y="127" width="216" height="55" rx="8" fill="#EFBD0B" stroke="#222222" stroke-width="4"/>
<rect x="94" y="110" width="118" height="7" rx="3.5" fill="white"/>
<rect x="128" y="193" width="50" height="7" rx="3.5" fill="white"/>
<path d="M55.0151 143.603H61.4563V164H55.0151V143.603ZM80.6809 148.577C80.8956 148.839 81.0506 149.495 81.1461 150.545C81.2653 151.595 81.325 153.193 81.325 155.34V164H75.2058V155.412V153.944C75.2058 153.181 75.1461 152.704 75.0269 152.513C74.836 152.275 74.3947 152.155 73.7028 152.155C73.3688 152.155 73.1183 152.167 72.9513 152.191C72.2834 152.215 71.5915 152.37 70.8758 152.656V164H64.7566V147.539H69.7307L70.4106 150.294C72.1283 148.219 74.18 147.181 76.5656 147.181C77.4244 147.181 78.2236 147.3 78.9632 147.539C79.7266 147.778 80.2991 148.123 80.6809 148.577ZM91.7381 157.237C91.7381 157.666 91.75 158.119 91.7738 158.597C91.7977 159.05 91.8693 159.336 91.9886 159.455C92.1555 159.622 92.74 159.706 93.742 159.706L94.9587 159.67C95.1734 160.815 95.2808 162.139 95.2808 163.642C94.8275 163.809 94.1595 163.964 93.2768 164.107C92.418 164.25 91.5949 164.322 90.8077 164.322C89.1616 164.322 87.8852 163.964 86.9787 163.249C86.096 162.509 85.6547 161.376 85.6547 159.849V151.046H82.9708V147.79L85.6547 147.539L87.265 143.603L91.7381 143.352V147.539H95.5312V151.046H91.7381V157.237ZM107.345 159.706C107.942 159.706 109.051 159.646 110.673 159.527C110.888 159.527 111.282 159.503 111.854 159.455L112.391 163.141C110.554 164 108.168 164.429 105.234 164.429C102.49 164.429 100.379 163.738 98.9 162.354C97.4448 160.97 96.7172 158.883 96.7172 156.092C96.7172 154.66 96.8961 153.277 97.2539 151.941C97.6356 150.605 98.0651 149.674 98.5422 149.149C99.0432 148.624 99.9736 148.171 101.333 147.79C102.693 147.408 104.041 147.217 105.377 147.217C107.524 147.217 109.134 147.599 110.208 148.362C111.282 149.125 111.985 150.187 112.319 151.547C112.653 152.883 112.82 154.684 112.82 156.95C111.198 157.046 109.612 157.094 108.061 157.094H102.98C102.98 157.857 103.135 158.43 103.445 158.811C103.779 159.193 104.244 159.443 104.84 159.563C105.437 159.658 106.272 159.706 107.345 159.706ZM103.337 151.475C103.194 151.547 103.087 151.857 103.015 152.406C102.944 152.954 102.896 153.575 102.872 154.267H104.733C105.854 154.267 106.665 154.255 107.166 154.231C107.166 153.086 106.999 152.275 106.665 151.797C106.355 151.32 105.807 151.082 105.019 151.082C104.375 151.082 103.814 151.213 103.337 151.475ZM125.173 147.181C125.483 147.181 125.805 147.217 126.139 147.289C126.497 147.36 126.759 147.444 126.926 147.539C126.926 148.064 126.867 148.935 126.747 150.151C126.628 151.344 126.521 152.191 126.425 152.692C126.187 152.668 125.745 152.656 125.101 152.656C123.598 152.656 122.262 152.74 121.093 152.907V164H114.974V147.539H120.091L120.807 150.187H120.843C121.535 149.281 122.274 148.553 123.061 148.004C123.849 147.456 124.552 147.181 125.173 147.181ZM154.262 148.684C154.644 149.257 154.835 151.475 154.835 155.34V164H148.716V155.948V154.016C148.716 153.133 148.632 152.609 148.465 152.442C148.274 152.251 147.869 152.155 147.249 152.155L146.819 152.191C146.08 152.239 145.376 152.406 144.708 152.692C144.732 153.193 144.744 154.076 144.744 155.34V164H138.624V155.948V153.801C138.624 153.062 138.541 152.609 138.374 152.442C138.183 152.251 137.778 152.155 137.157 152.155L136.728 152.191C136.06 152.215 135.368 152.37 134.652 152.656V164H128.533V147.539H133.507L134.151 150.223C134.939 149.173 135.845 148.41 136.871 147.933C137.897 147.432 138.935 147.181 139.984 147.181C140.867 147.181 141.702 147.312 142.489 147.575C143.3 147.837 143.861 148.207 144.171 148.684C144.314 148.899 144.434 149.292 144.529 149.865C145.292 148.935 146.163 148.255 147.141 147.825C148.119 147.396 149.097 147.181 150.076 147.181C150.958 147.181 151.793 147.312 152.581 147.575C153.392 147.837 153.952 148.207 154.262 148.684ZM167.662 159.706C168.259 159.706 169.368 159.646 170.99 159.527C171.205 159.527 171.598 159.503 172.171 159.455L172.708 163.141C170.871 164 168.485 164.429 165.551 164.429C162.807 164.429 160.696 163.738 159.217 162.354C157.762 160.97 157.034 158.883 157.034 156.092C157.034 154.66 157.213 153.277 157.571 151.941C157.953 150.605 158.382 149.674 158.859 149.149C159.36 148.624 160.29 148.171 161.65 147.79C163.01 147.408 164.358 147.217 165.694 147.217C167.841 147.217 169.451 147.599 170.525 148.362C171.598 149.125 172.302 150.187 172.636 151.547C172.97 152.883 173.137 154.684 173.137 156.95C171.515 157.046 169.928 157.094 168.378 157.094H163.296C163.296 157.857 163.451 158.43 163.762 158.811C164.096 159.193 164.561 159.443 165.157 159.563C165.754 159.658 166.589 159.706 167.662 159.706ZM163.654 151.475C163.511 151.547 163.404 151.857 163.332 152.406C163.261 152.954 163.213 153.575 163.189 154.267H165.05C166.171 154.267 166.982 154.255 167.483 154.231C167.483 153.086 167.316 152.275 166.982 151.797C166.672 151.32 166.123 151.082 165.336 151.082C164.692 151.082 164.131 151.213 163.654 151.475ZM191.68 142.279V164H186.635L186.134 161.245C185.657 162.175 184.953 162.915 184.022 163.463C183.092 164.012 182.042 164.286 180.873 164.286C179.013 164.286 177.522 163.618 176.4 162.282C175.303 160.946 174.754 158.942 174.754 156.27C174.754 154.243 174.993 152.573 175.47 151.261C175.947 149.949 176.508 149.006 177.152 148.434C177.557 148.076 178.38 147.778 179.621 147.539C180.885 147.3 182.007 147.181 182.985 147.181C183.844 147.181 184.726 147.265 185.633 147.432C185.561 146.287 185.525 145.654 185.525 145.535V142.529L191.68 142.279ZM183.557 159.491C184.201 159.491 184.869 159.384 185.561 159.169V151.404C184.869 151.308 184.106 151.261 183.271 151.261C182.555 151.261 182.102 151.32 181.911 151.44C181.649 151.63 181.434 152.179 181.267 153.086C181.124 153.968 181.052 154.899 181.052 155.877C181.052 157.332 181.267 158.298 181.696 158.775C182.15 159.253 182.77 159.491 183.557 159.491ZM197.801 145.499C196.99 145.499 196.286 145.225 195.69 144.676C195.117 144.128 194.831 143.471 194.831 142.708C194.831 141.945 195.117 141.289 195.69 140.74C196.286 140.191 196.99 139.917 197.801 139.917C198.612 139.917 199.304 140.191 199.877 140.74C200.449 141.289 200.735 141.945 200.735 142.708C200.735 143.471 200.449 144.128 199.877 144.676C199.304 145.225 198.612 145.499 197.801 145.499ZM194.724 147.539H200.843V164H194.724V147.539ZM213.682 164L213.109 161.746C212.012 163.535 210.485 164.429 208.529 164.429C206.93 164.429 205.618 163.988 204.593 163.105C203.591 162.199 203.09 160.934 203.09 159.312C203.09 158.31 203.376 157.439 203.948 156.7C204.545 155.937 205.356 155.4 206.382 155.09C207.718 154.708 209.781 154.493 212.573 154.445C212.573 152.871 212.501 152.036 212.358 151.941C212.239 151.845 211.857 151.797 211.213 151.797C210.807 151.797 210.247 151.821 209.531 151.869C208.386 151.917 206.835 152.048 204.879 152.263C204.688 150.974 204.545 149.591 204.449 148.112C205.714 147.849 207.038 147.634 208.422 147.467C209.805 147.277 211.046 147.181 212.143 147.181C214.052 147.181 215.483 147.503 216.437 148.147C217.392 148.768 218.012 149.591 218.298 150.617C218.584 151.642 218.716 152.943 218.692 154.517L218.656 159.777L218.763 164H213.682ZM210.604 160.422C211.225 160.422 211.881 160.302 212.573 160.064V157.416H212.286C210.521 157.416 209.543 157.511 209.352 157.702C209.233 157.821 209.137 158 209.066 158.239C209.018 158.477 208.994 158.704 208.994 158.919C208.994 159.491 209.125 159.885 209.388 160.099C209.65 160.314 210.056 160.422 210.604 160.422ZM229.041 157.237C229.041 157.666 229.053 158.119 229.077 158.597C229.101 159.05 229.172 159.336 229.292 159.455C229.459 159.622 230.043 159.706 231.045 159.706L232.262 159.67C232.476 160.815 232.584 162.139 232.584 163.642C232.131 163.809 231.463 163.964 230.58 164.107C229.721 164.25 228.898 164.322 228.111 164.322C226.465 164.322 225.188 163.964 224.282 163.249C223.399 162.509 222.958 161.376 222.958 159.849V151.046H220.274V147.79L222.958 147.539L224.568 143.603L229.041 143.352V147.539H232.834V151.046H229.041V157.237ZM244.648 159.706C245.245 159.706 246.354 159.646 247.976 159.527C248.191 159.527 248.585 159.503 249.157 159.455L249.694 163.141C247.857 164 245.471 164.429 242.537 164.429C239.793 164.429 237.682 163.738 236.203 162.354C234.748 160.97 234.02 158.883 234.02 156.092C234.02 154.66 234.199 153.277 234.557 151.941C234.939 150.605 235.368 149.674 235.845 149.149C236.346 148.624 237.277 148.171 238.636 147.79C239.996 147.408 241.344 147.217 242.68 147.217C244.827 147.217 246.438 147.599 247.511 148.362C248.585 149.125 249.288 150.187 249.622 151.547C249.956 152.883 250.123 154.684 250.123 156.95C248.501 157.046 246.915 157.094 245.364 157.094H240.283C240.283 157.857 240.438 158.43 240.748 158.811C241.082 159.193 241.547 159.443 242.143 159.563C242.74 159.658 243.575 159.706 244.648 159.706ZM240.64 151.475C240.497 151.547 240.39 151.857 240.318 152.406C240.247 152.954 240.199 153.575 240.175 154.267H242.036C243.157 154.267 243.968 154.255 244.469 154.231C244.469 153.086 244.302 152.275 243.968 151.797C243.658 151.32 243.11 151.082 242.322 151.082C241.678 151.082 241.118 151.213 240.64 151.475Z" fill="#222222"/>
</svg>
