<svg width="190" height="190" viewBox="0 0 190 190" fill="none" xmlns="http://www.w3.org/2000/svg">
<circle cx="95" cy="95" r="71.25" fill="#EFBD0B" stroke="#222222" strokeWidth="7.91667"/>
<circle cx="94.8333" cy="94.8333" r="40.8333" fill="#6339DC" stroke="#222222" strokeWidth="10.2083"/>
<path d="M95 23.75V53M142.5 142.5L126.5 126.5M142.5 47.5L126.5 63.5M23.75 95H50.5" stroke="#222222" strokeWidth="7.91667" strokeLinecap="round"/>
<path d="M92.4777 72.9173C93.6589 71.0828 96.3411 71.0828 97.5223 72.9173L103.672 82.4676C104.103 83.1367 104.782 83.6072 105.559 83.7756L116.852 86.22C119.124 86.7119 119.998 89.4901 118.416 91.1937L111.033 99.1423C110.452 99.7679 110.165 100.611 110.244 101.461L111.235 112.134C111.442 114.363 109.224 116.025 107.144 115.201L96.1044 110.83C95.3949 110.549 94.6051 110.549 93.8955 110.83L82.8565 115.201C80.7757 116.025 78.558 114.363 78.7649 112.134L79.756 101.461C79.8349 100.611 79.5479 99.7679 78.967 99.1423L71.5845 91.1937C70.0022 89.4901 70.8755 86.7119 73.1479 86.22L84.4406 83.7756C85.2183 83.6072 85.8974 83.1367 86.3282 82.4676L92.4777 72.9173Z" fill="#EFBD0B"/>
</svg>
