<svg width="284" height="282" viewBox="0 0 284 282" fill="none" xmlns="http://www.w3.org/2000/svg">
<path d="M221.597 31.7152C201.007 18.2671 177.006 10.5236 152.193 9.32285C127.379 8.12211 102.699 13.51 80.8243 24.9031C58.9493 36.2962 40.7127 53.2605 28.0889 73.9595C15.4651 94.6585 8.93495 118.303 9.20551 142.335C9.47606 166.366 16.537 189.868 29.6238 210.296C42.7107 230.724 61.3249 247.3 83.4512 258.23C105.578 269.159 130.373 274.026 155.153 272.303C179.934 270.579 203.755 262.332 224.037 248.453L197.926 212.746C184.377 222.017 168.464 227.526 151.911 228.677C135.358 229.828 118.795 226.577 104.014 219.276C89.2339 211.975 76.7996 200.902 68.0576 187.256C59.3156 173.61 54.5989 157.911 54.4181 141.858C54.2374 125.806 58.5995 110.011 67.0322 96.1838C75.465 82.3568 87.647 71.0247 102.259 63.4141C116.872 55.8034 133.358 52.2044 149.933 53.0065C166.509 53.8086 182.541 58.9813 196.296 67.9646L221.597 31.7152Z" fill="#A076F9"/>
<path d="M221.597 31.7152C201.007 18.2671 177.006 10.5236 152.193 9.32285C127.379 8.12211 102.699 13.51 80.8243 24.9031C58.9493 36.2962 40.7127 53.2605 28.0889 73.9595C15.4651 94.6585 8.93495 118.303 9.20551 142.335C9.47606 166.366 16.537 189.868 29.6238 210.296C42.7107 230.724 61.3249 247.3 83.4512 258.23C105.578 269.159 130.373 274.026 155.153 272.303C179.934 270.579 203.755 262.332 224.037 248.453L197.926 212.746C184.377 222.017 168.464 227.526 151.911 228.677C135.358 229.828 118.795 226.577 104.014 219.276C89.2339 211.975 76.7996 200.902 68.0576 187.256C59.3156 173.61 54.5989 157.911 54.4181 141.858C54.2374 125.806 58.5995 110.011 67.0322 96.1838C75.465 82.3568 87.647 71.0247 102.259 63.4141C116.872 55.8034 133.358 52.2044 149.933 53.0065C166.509 53.8086 182.541 58.9813 196.296 67.9646L221.597 31.7152Z" fill="#A076F9"/>
<path d="M221.597 31.7152C201.007 18.2671 177.006 10.5236 152.193 9.32285C127.379 8.12211 102.699 13.51 80.8243 24.9031C58.9493 36.2962 40.7127 53.2605 28.0889 73.9595C15.4651 94.6585 8.93495 118.303 9.20551 142.335C9.47606 166.366 16.537 189.868 29.6238 210.296C42.7107 230.724 61.3249 247.3 83.4512 258.23C105.578 269.159 130.373 274.026 155.153 272.303C179.934 270.579 203.755 262.332 224.037 248.453L197.926 212.746C184.377 222.017 168.464 227.526 151.911 228.677C135.358 229.828 118.795 226.577 104.014 219.276C89.2339 211.975 76.7996 200.902 68.0576 187.256C59.3156 173.61 54.5989 157.911 54.4181 141.858C54.2374 125.806 58.5995 110.011 67.0322 96.1838C75.465 82.3568 87.647 71.0247 102.259 63.4141C116.872 55.8034 133.358 52.2044 149.933 53.0065C166.509 53.8086 182.541 58.9813 196.296 67.9646L221.597 31.7152Z" stroke="#222222" strokeWidth="17.7196"/>
<path d="M102.906 196.993C113.467 204.213 125.868 208.5 138.768 209.392C151.667 210.283 164.573 207.744 176.088 202.049C187.603 196.355 197.288 187.722 204.095 177.086C210.902 166.449 214.572 154.214 214.707 141.705C214.842 129.196 211.437 116.889 204.86 106.118C198.284 95.3461 188.787 86.5198 177.398 80.5943C166.008 74.6689 153.16 71.87 140.244 72.5008C127.328 73.1315 114.837 77.1678 104.122 84.1728L117.301 103.036C124.459 98.3567 132.803 95.6604 141.431 95.2391C150.059 94.8177 158.641 96.6874 166.249 100.646C173.858 104.604 180.202 110.5 184.595 117.695C188.988 124.891 191.262 133.111 191.172 141.468C191.082 149.824 188.63 157.997 184.083 165.102C179.536 172.207 173.066 177.974 165.374 181.778C157.683 185.581 149.062 187.277 140.445 186.682C131.828 186.087 123.544 183.223 116.489 178.4L102.906 196.993Z" fill="#A076F9"/>
<path d="M102.906 196.993C113.467 204.213 125.868 208.5 138.768 209.392C151.667 210.283 164.573 207.744 176.088 202.049C187.603 196.355 197.288 187.722 204.095 177.086C210.902 166.449 214.572 154.214 214.707 141.705C214.842 129.196 211.437 116.889 204.86 106.118C198.284 95.3461 188.787 86.5198 177.398 80.5943C166.008 74.6689 153.16 71.87 140.244 72.5008C127.328 73.1315 114.837 77.1678 104.122 84.1728L117.301 103.036C124.459 98.3567 132.803 95.6604 141.431 95.2391C150.059 94.8177 158.641 96.6874 166.249 100.646C173.858 104.604 180.202 110.5 184.595 117.695C188.988 124.891 191.262 133.111 191.172 141.468C191.082 149.824 188.63 157.997 184.083 165.102C179.536 172.207 173.066 177.974 165.374 181.778C157.683 185.581 149.062 187.277 140.445 186.682C131.828 186.087 123.544 183.223 116.489 178.4L102.906 196.993Z" fill="#A076F9"/>
<path d="M102.906 196.993C113.467 204.213 125.868 208.5 138.768 209.392C151.667 210.283 164.573 207.744 176.088 202.049C187.603 196.355 197.288 187.722 204.095 177.086C210.902 166.449 214.572 154.214 214.707 141.705C214.842 129.196 211.437 116.889 204.86 106.118C198.284 95.3461 188.787 86.5198 177.398 80.5943C166.008 74.6689 153.16 71.87 140.244 72.5008C127.328 73.1315 114.837 77.1678 104.122 84.1728L117.301 103.036C124.459 98.3567 132.803 95.6604 141.431 95.2391C150.059 94.8177 158.641 96.6874 166.249 100.646C173.858 104.604 180.202 110.5 184.595 117.695C188.988 124.891 191.262 133.111 191.172 141.468C191.082 149.824 188.63 157.997 184.083 165.102C179.536 172.207 173.066 177.974 165.374 181.778C157.683 185.581 149.062 187.277 140.445 186.682C131.828 186.087 123.544 183.223 116.489 178.4L102.906 196.993Z" stroke="#222222" strokeWidth="9.22369"/>
<g clip-path="url(#clip0_469_459)">
<path d="M242.295 51.1845C243.62 50.1064 245.59 50.2705 246.705 51.5517L248.72 53.8681C249.834 55.1493 249.665 57.0554 248.34 58.1336L236.367 67.8792L231.578 71.7775L219.605 81.5232C218.281 82.6013 216.31 82.4372 215.196 81.156L213.181 78.8396C212.066 77.5584 212.236 75.6523 213.56 74.5741L218.349 70.6759L216.335 68.3595C215.22 67.0783 215.39 65.1721 216.714 64.094L221.503 60.1958C220.389 58.9145 220.558 57.0084 221.883 55.9303C223.207 54.8522 225.178 55.0163 226.292 56.2975L231.082 52.3992C232.406 51.3211 234.377 51.4852 235.491 52.7664L237.506 55.0828L242.295 51.1845ZM270.505 83.6134L265.715 87.5117L267.73 89.828C268.845 91.1093 268.675 93.0154 267.351 94.0935L262.562 97.9918C263.676 99.273 263.507 101.179 262.182 102.257C260.858 103.335 258.887 103.171 257.773 101.89L252.983 105.788C251.659 106.866 249.688 106.702 248.574 105.421L246.559 103.105L241.77 107.003C240.445 108.081 238.475 107.917 237.36 106.636L235.345 104.319C234.231 103.038 234.4 101.132 235.725 100.054L247.698 90.3083L252.487 86.41L264.46 76.6643C265.784 75.5862 267.755 75.7503 268.869 77.0316L270.884 79.3479C271.999 80.6291 271.829 82.5353 270.505 83.6134ZM250.472 84.0937L245.683 87.992L233.593 74.0939L238.382 70.1956L250.472 84.0937Z" fill="#222222"/>
</g>
<g clip-path="url(#clip1_469_459)">
<path d="M271.399 158.235C270.884 158.959 270.034 159.407 269.124 159.438L262.635 159.66L238.843 160.474C234.86 160.61 231.497 156.971 231.328 152.351C231.159 147.731 234.248 143.872 238.232 143.736C242.215 143.6 245.578 147.238 245.747 151.858C245.783 152.835 245.673 153.781 245.434 154.662L258.556 154.213L250.819 132.133L232.056 132.774C228.073 132.91 224.71 129.272 224.541 124.652C224.372 120.031 227.462 116.173 231.445 116.036C235.428 115.9 238.792 119.539 238.96 124.159C238.996 125.135 238.886 126.082 238.648 126.963L252.761 126.48L259.249 126.259C260.52 126.215 261.676 126.987 262.088 128.152L271.759 155.752C272.051 156.589 271.923 157.51 271.399 158.235Z" fill="#222222"/>
</g>
<g clip-path="url(#clip2_469_459)">
<path d="M266.765 200.108C269.666 196.423 268.928 191.156 265.119 188.35L242.118 171.407C238.308 168.601 232.864 169.314 229.963 172.999L214.199 193.024L212.447 195.249C211.479 196.479 211.724 198.231 212.996 199.168C214.268 200.105 216.079 199.868 217.048 198.637L221.648 202.026C220.679 203.256 220.924 205.008 222.196 205.945L245.198 222.888C246.47 223.825 248.28 223.588 249.249 222.358L251.001 220.133L266.765 200.108ZM239.163 179.776L225.151 197.576L220.551 194.187L234.563 176.387C235.532 175.157 237.342 174.92 238.615 175.857C239.887 176.794 240.132 178.545 239.163 179.776ZM254.663 194.708C255.295 195.174 255.418 196.056 254.937 196.668L244.428 210.018C243.946 210.63 243.034 210.749 242.402 210.283C241.769 209.817 241.646 208.935 242.128 208.324L252.637 194.974C253.118 194.362 254.03 194.242 254.663 194.708ZM250.337 193.279L239.827 206.629C239.346 207.241 238.434 207.36 237.802 206.895C237.169 206.429 237.046 205.547 237.527 204.935L248.036 191.585C248.518 190.973 249.43 190.854 250.062 191.32C250.695 191.786 250.818 192.667 250.337 193.279Z" fill="#222222"/>
</g>
<g clip-path="url(#clip3_469_459)">
<path d="M112.734 140.13C112.734 131.752 116.175 123.718 122.298 117.794C128.422 111.87 136.728 108.542 145.388 108.542C154.048 108.542 162.354 111.87 168.478 117.794C174.602 123.718 178.042 131.752 178.042 140.13C178.042 148.507 174.602 156.541 168.478 162.465C162.354 168.389 154.048 171.717 145.388 171.717C136.728 171.717 128.422 168.389 122.298 162.465C116.175 156.541 112.734 148.507 112.734 140.13ZM136.753 126.693C135.783 127.211 135.184 128.21 135.184 129.271V150.988C135.184 152.061 135.783 153.048 136.753 153.566C137.722 154.085 138.896 154.072 139.852 153.505L158.22 142.647C159.126 142.104 159.687 141.154 159.687 140.117C159.687 139.081 159.126 138.131 158.22 137.588L139.852 126.73C138.908 126.174 137.722 126.15 136.753 126.668V126.693Z" fill="#222222"/>
</g>
<g clip-path="url(#clip4_469_459)">
<path d="M100.986 95.0347C101.035 95.0577 101.083 95.0806 101.132 95.1035C103.087 96.0545 103.549 98.4164 102.587 100.318L100.008 105.42C99.3102 106.801 99.902 108.469 101.33 109.144C101.513 109.231 101.701 109.294 101.889 109.344C102.494 109.495 103.138 109.515 103.784 109.543C104.688 109.577 105.584 109.614 106.366 109.983C108.079 110.793 109.066 112.655 108.299 114.346C108.212 114.53 108.125 114.715 108.03 114.903C104.308 122.266 95.116 125.317 87.499 121.714C79.8821 118.111 76.7276 109.219 80.4524 101.851C84.1771 94.4831 93.3692 91.4317 100.986 95.0347ZM92.5946 115.86C92.1374 115.644 91.6102 115.612 91.1288 115.772C90.6475 115.931 90.2514 116.27 90.0279 116.712C89.8043 117.154 89.7715 117.664 89.9367 118.13C90.1019 118.595 90.4515 118.978 90.9087 119.195C91.3659 119.411 91.8932 119.443 92.3745 119.283C92.8559 119.123 93.2519 118.785 93.4754 118.343C93.699 117.9 93.7318 117.39 93.5666 116.925C93.4014 116.459 93.0518 116.076 92.5946 115.86ZM87.4233 113.414C87.6468 112.971 87.6796 112.461 87.5144 111.996C87.3492 111.53 86.9996 111.147 86.5424 110.931C86.0853 110.714 85.558 110.683 85.0766 110.842C84.5953 111.002 84.1993 111.34 83.9757 111.783C83.7521 112.225 83.7193 112.735 83.8845 113.201C84.0497 113.666 84.3994 114.049 84.8565 114.266C85.3137 114.482 85.841 114.514 86.3223 114.354C86.8037 114.194 87.1997 113.856 87.4233 113.414ZM86.4666 102.63C86.0095 102.414 85.4822 102.382 85.0009 102.542C84.5195 102.702 84.1235 103.04 83.8999 103.482C83.6764 103.924 83.6436 104.434 83.8087 104.9C83.9739 105.366 84.3236 105.749 84.7808 105.965C85.2379 106.181 85.7652 106.213 86.2465 106.053C86.7279 105.893 87.1239 105.555 87.3475 105.113C87.571 104.671 87.6038 104.161 87.4386 103.695C87.2735 103.229 86.9238 102.846 86.4666 102.63ZM94.1668 100.074C94.3904 99.6316 94.4232 99.1215 94.258 98.6559C94.0928 98.1903 93.7432 97.8072 93.286 97.5909C92.8288 97.3747 92.3015 97.3429 91.8202 97.5027C91.3388 97.6625 90.9428 98.0007 90.7193 98.443C90.4957 98.8852 90.4629 99.3953 90.6281 99.8609C90.7933 100.327 91.1429 100.71 91.6001 100.926C92.0573 101.142 92.5845 101.174 93.0659 101.014C93.5472 100.854 93.9433 100.516 94.1668 100.074Z" fill="#222222"/>
</g>
<g clip-path="url(#clip5_469_459)">
<path d="M71.9863 148.283C72.0579 153.971 76.8866 158.53 82.7668 158.461C88.6469 158.392 93.3595 153.721 93.288 148.033L93.1152 134.295C93.0437 128.607 88.215 124.049 82.3348 124.118C76.4547 124.187 71.742 128.858 71.8136 134.546L71.9863 148.283ZM77.5504 131.903C77.5432 131.333 77.7701 130.785 78.1812 130.377C78.5923 129.97 79.1538 129.737 79.7423 129.73C80.3308 129.723 80.898 129.943 81.3192 130.34C81.7404 130.738 81.9811 131.281 81.9882 131.85C81.9954 132.42 81.7685 132.968 81.3574 133.376C80.9463 133.783 80.3848 134.016 79.7963 134.023C79.2078 134.03 78.6406 133.81 78.2194 133.413C77.7982 133.015 77.5575 132.472 77.5504 131.903ZM85.1649 137.394C84.5764 137.401 84.0092 137.182 83.588 136.784C83.1668 136.387 82.9261 135.843 82.919 135.274C82.9118 134.705 83.1387 134.156 83.5498 133.749C83.9609 133.341 84.5224 133.109 85.1109 133.102C85.6994 133.095 86.2666 133.314 86.6878 133.712C87.109 134.109 87.3497 134.653 87.3568 135.222C87.364 135.791 87.1371 136.34 86.726 136.747C86.315 137.155 85.7534 137.388 85.1649 137.394ZM79.5469 149.482C78.8091 149.491 78.2083 148.924 78.1993 148.21C78.1904 147.497 78.7767 146.915 79.5145 146.907L81.2896 146.886L81.268 145.169C81.2591 144.455 81.8454 143.874 82.5832 143.865C83.321 143.856 83.9218 144.424 83.9307 145.137L83.9523 146.854L85.7275 146.834C86.4653 146.825 87.066 147.392 87.075 148.106C87.084 148.819 86.4977 149.401 85.7599 149.409L83.9847 149.43L84.0063 151.147C84.0153 151.861 83.429 152.442 82.6912 152.451C81.9534 152.46 81.3526 151.892 81.3436 151.179L81.322 149.462L79.5469 149.482Z" fill="#222222"/>
</g>
<g clip-path="url(#clip6_469_459)">
<path d="M83.0905 163.733L87.7638 168.454C89.0698 166.989 89.8696 165.091 89.9163 163.008C89.9341 162.211 89.8392 161.438 89.6482 160.702C87.1867 161.16 84.9417 162.226 83.0905 163.733ZM81.796 164.932C80.1588 166.656 78.9613 168.78 78.3812 171.138C79.1336 171.355 79.9273 171.48 80.7515 171.497C82.9044 171.543 84.8999 170.852 86.4747 169.659L81.796 164.932ZM92.6657 160.461C92.2564 160.453 91.8468 160.46 91.4424 160.485C91.6371 161.308 91.73 162.167 91.7103 163.046C91.6529 165.611 90.6417 167.934 89.0143 169.717L92.3821 173.119L102.085 164.131C99.5996 161.92 96.3043 160.538 92.6657 160.461ZM80.7126 173.233C79.8043 173.214 78.9209 173.087 78.079 172.863C78.0366 173.253 78.0109 173.648 78.002 174.044C77.9232 177.564 79.2079 180.808 81.3844 183.307L91.0876 174.319L87.7198 170.916C85.8073 172.412 83.3645 173.288 80.7126 173.233ZM106.63 175.827C106.673 175.437 106.698 175.042 106.707 174.646C106.786 171.126 105.501 167.882 103.325 165.384L93.6217 174.372L96.9895 177.774C98.8965 176.278 101.345 175.402 103.997 175.457C104.905 175.476 105.788 175.603 106.63 175.827ZM106.328 177.552C105.576 177.335 104.782 177.21 103.958 177.193C101.805 177.148 99.8095 177.838 98.2346 179.032L102.913 183.758C104.55 182.04 105.753 179.916 106.328 177.552ZM96.9401 180.231C95.6395 181.701 94.8397 183.599 94.7931 185.682C94.7752 186.479 94.8701 187.252 95.0611 187.988C97.5226 187.53 99.7677 186.465 101.619 184.957L96.9456 180.236L96.9401 180.231ZM95.695 178.973L92.3272 175.571L82.624 184.559C85.1042 186.77 88.3994 188.152 92.0436 188.229C92.4529 188.237 92.8626 188.23 93.267 188.206C93.0723 187.382 92.9793 186.523 92.999 185.644C93.0565 183.079 94.0677 180.756 95.695 178.973Z" fill="#222222"/>
</g>
<defs>
<clipPath id="clip0_469_459">
<rect width="61.4021" height="49.4012" fill="white" transform="matrix(0.656316 0.754486 -0.775552 0.631284 243.204 38.937)"/>
</clipPath>
<clipPath id="clip1_469_459">
<rect width="44.664" height="46.1685" fill="white" transform="matrix(0.0365047 0.999334 -0.999416 0.0341614 270.377 114.706)"/>
</clipPath>
<clipPath id="clip2_469_459">
<rect width="39.6435" height="45.7086" fill="white" transform="matrix(-0.618548 0.785747 -0.805142 -0.593082 272.019 193.433)"/>
</clipPath>
<clipPath id="clip3_469_459">
<rect width="65.3078" height="63.1744" fill="white" transform="translate(112.734 108.542)"/>
</clipPath>
<clipPath id="clip4_469_459">
<rect width="29.8948" height="30.5106" fill="white" transform="matrix(0.451153 -0.892447 0.903965 0.427606 73.7088 115.191)"/>
</clipPath>
<clipPath id="clip5_469_459">
<rect width="34.3457" height="28.4042" fill="white" transform="matrix(-0.0125756 -0.999921 0.999931 -0.0117676 68.5656 158.628)"/>
</clipPath>
<clipPath id="clip6_469_459">
<rect width="28.7116" height="27.7745" fill="white" transform="matrix(0.99978 0.0209577 -0.0223964 0.999749 78.3131 160.16)"/>
</clipPath>
</defs>
</svg>
