<svg width="305" height="305" viewBox="0 0 305 305" fill="none" xmlns="http://www.w3.org/2000/svg">
<path d="M152.223 180.136C152.623 179.642 153.377 179.642 153.777 180.136L175.892 207.433C176.036 207.611 176.115 207.834 176.115 208.063V267.937C176.115 268.166 176.036 268.389 175.892 268.567L153.777 295.864C153.377 296.358 152.623 296.358 152.223 295.864L130.108 268.567C129.964 268.389 129.885 268.166 129.885 267.937V208.063C129.885 207.834 129.964 207.611 130.108 207.433L152.223 180.136Z" fill="#6339DC" stroke="#222222" stroke-width="4"/>
<path d="M65 82H124V264.634C124 265.416 123.142 265.895 122.476 265.485L65 230.144V82Z" fill="#EFBD0B" stroke="#222222" stroke-width="4"/>
<path d="M242 79.9999H183V264.604C183 265.388 183.862 265.867 184.528 265.453L185.583 267.152L184.528 265.453L242 229.742V79.9999Z" fill="#EFBD0B" stroke="#222222" stroke-width="4"/>
<path d="M198.717 64.5638L276.702 92.9786C282.929 95.2475 286.138 102.135 283.869 108.362L272.4 139.837C263.797 163.448 237.683 175.614 214.073 167.011L167.564 150.065L198.717 64.5638Z" fill="#EFBD0B" stroke="#222222" stroke-width="4"/>
<path d="M105.823 64.5638L27.8387 92.9786C21.6118 95.2475 18.4031 102.135 20.672 108.362L32.1406 139.837C40.7434 163.448 66.8575 175.614 90.468 167.011L136.977 150.065L105.823 64.5638Z" fill="#EFBD0B" stroke="#222222" stroke-width="4"/>
<path d="M199.717 111.564L277.702 139.979C283.929 142.247 287.138 149.135 284.869 155.362L273.4 186.837C264.797 210.448 238.683 222.614 215.073 214.011L168.564 197.065L199.717 111.564Z" fill="#EFBD0B" stroke="#222222" stroke-width="4"/>
<path d="M106.823 111.564L28.8387 139.979C22.6118 142.247 19.4031 149.135 21.672 155.362L33.1406 186.837C41.7434 210.448 67.8575 222.614 91.468 214.011L137.977 197.065L106.823 111.564Z" fill="#EFBD0B" stroke="#222222" stroke-width="4"/>
<path d="M161.942 31.8135C156.402 28.6429 149.598 28.6429 144.058 31.8135L59.5994 80.1555C53.9973 83.362 50.541 89.3227 50.541 95.7775V192.222C50.541 198.677 53.9973 204.638 59.5994 207.844L144.058 256.186C149.598 259.357 156.402 259.357 161.942 256.186L246.401 207.844C252.003 204.638 255.459 198.677 255.459 192.222V95.7775C255.459 89.3227 252.003 83.362 246.401 80.1555L161.942 31.8135Z" fill="white" stroke="#222222" stroke-width="4"/>
<path d="M145.676 48.0994C149.917 45.7321 155.083 45.7321 159.324 48.0994L234.689 90.1683C239.12 92.6415 241.866 97.3185 241.866 102.393V185.607C241.866 190.681 239.12 195.359 234.689 197.832L159.324 239.901C155.083 242.268 149.917 242.268 145.676 239.901L70.3107 197.832C65.88 195.359 63.1343 190.681 63.1343 185.607V102.393C63.1343 97.3185 65.88 92.6415 70.3107 90.1683L145.676 48.0994Z" fill="#5840A0" stroke="#222222" stroke-width="4"/>
<rect x="44" y="119" width="216" height="55" rx="8" fill="#EFBD0B" stroke="#222222" stroke-width="4"/>
<path d="M124.645 159H118.261L117.767 147.068C117.691 144.712 117.603 142.926 117.501 141.71H117.387C117.083 142.673 116.729 144.167 116.323 146.194L116.133 147.144L113.511 159H107.127L104.923 148.322L104.543 146.422C104.011 144.066 103.644 142.495 103.441 141.71H103.327C103.226 142.977 103.137 145.041 103.061 147.904C103.036 148.081 103.023 148.36 103.023 148.74L102.681 159H96.2594L97.1714 137.34H108.039L109.901 146.688L110.357 149.196C110.56 148.411 110.75 147.537 110.927 146.574L112.675 137.34H123.771L124.645 159ZM138.069 159L137.461 156.606C136.295 158.506 134.674 159.456 132.597 159.456C130.899 159.456 129.506 158.987 128.417 158.05C127.353 157.087 126.821 155.745 126.821 154.022C126.821 152.958 127.125 152.033 127.733 151.248C128.366 150.437 129.227 149.867 130.317 149.538C131.735 149.133 133.927 148.905 136.891 148.854C136.891 147.182 136.815 146.295 136.663 146.194C136.536 146.093 136.131 146.042 135.447 146.042C135.016 146.042 134.421 146.067 133.661 146.118C132.445 146.169 130.798 146.308 128.721 146.536C128.518 145.168 128.366 143.699 128.265 142.128C129.607 141.849 131.013 141.621 132.483 141.444C133.952 141.241 135.269 141.14 136.435 141.14C138.461 141.14 139.981 141.482 140.995 142.166C142.008 142.825 142.667 143.699 142.971 144.788C143.275 145.877 143.414 147.258 143.389 148.93L143.351 154.516L143.465 159H138.069ZM134.801 155.2C135.459 155.2 136.156 155.073 136.891 154.82V152.008H136.587C134.712 152.008 133.673 152.109 133.471 152.312C133.344 152.439 133.243 152.629 133.167 152.882C133.116 153.135 133.091 153.376 133.091 153.604C133.091 154.212 133.23 154.63 133.509 154.858C133.787 155.086 134.218 155.2 134.801 155.2ZM160.459 153.072C160.459 155.327 159.737 156.948 158.293 157.936C156.874 158.924 154.847 159.418 152.213 159.418C150.363 159.418 148.235 159.152 145.829 158.62C145.879 158.113 145.993 157.391 146.171 156.454C146.373 155.491 146.538 154.757 146.665 154.25C147.577 154.402 148.59 154.529 149.705 154.63C150.819 154.706 151.769 154.744 152.555 154.744C153.239 154.744 153.657 154.706 153.809 154.63C153.834 154.605 153.859 154.541 153.885 154.44C153.935 154.313 153.961 154.187 153.961 154.06C153.961 153.553 153.644 153.211 153.011 153.034C152.808 152.983 152.035 152.768 150.693 152.388C149.35 152.008 148.248 151.324 147.387 150.336C146.551 149.323 146.133 148.069 146.133 146.574C146.133 145.789 146.31 144.915 146.665 143.952C147.019 142.989 147.399 142.381 147.805 142.128C148.109 141.925 148.843 141.723 150.009 141.52C151.174 141.292 152.251 141.178 153.239 141.178C155.341 141.178 157.457 141.33 159.585 141.634C159.585 142.09 159.521 142.863 159.395 143.952C159.268 145.016 159.154 145.687 159.053 145.966C156.899 145.687 155.164 145.548 153.847 145.548C153.163 145.548 152.719 145.586 152.517 145.662C152.466 145.687 152.415 145.763 152.365 145.89C152.314 145.991 152.289 146.131 152.289 146.308C152.289 146.663 152.403 146.916 152.631 147.068C152.859 147.245 153.454 147.461 154.417 147.714C155.557 148.043 156.532 148.385 157.343 148.74C158.179 149.095 158.901 149.627 159.509 150.336C160.142 151.045 160.459 151.957 160.459 153.072ZM170.67 151.818C170.67 152.274 170.682 152.755 170.708 153.262C170.733 153.743 170.809 154.047 170.936 154.174C171.113 154.351 171.734 154.44 172.798 154.44L174.09 154.402C174.318 155.618 174.432 157.024 174.432 158.62C173.95 158.797 173.241 158.962 172.304 159.114C171.392 159.266 170.518 159.342 169.682 159.342C167.934 159.342 166.578 158.962 165.616 158.202C164.678 157.417 164.21 156.213 164.21 154.592V145.244H161.36V141.786L164.21 141.52L165.92 137.34L170.67 137.074V141.52H174.698V145.244H170.67V151.818ZM187.243 154.44C187.876 154.44 189.054 154.377 190.777 154.25C191.005 154.25 191.423 154.225 192.031 154.174L192.601 158.088C190.65 159 188.117 159.456 185.001 159.456C182.088 159.456 179.846 158.721 178.275 157.252C176.73 155.783 175.957 153.566 175.957 150.602C175.957 149.082 176.147 147.613 176.527 146.194C176.932 144.775 177.388 143.787 177.895 143.23C178.427 142.673 179.415 142.191 180.859 141.786C182.303 141.381 183.734 141.178 185.153 141.178C187.433 141.178 189.143 141.583 190.283 142.394C191.423 143.205 192.17 144.332 192.525 145.776C192.88 147.195 193.057 149.107 193.057 151.514C191.334 151.615 189.65 151.666 188.003 151.666H182.607C182.607 152.477 182.772 153.085 183.101 153.49C183.456 153.895 183.95 154.161 184.583 154.288C185.216 154.389 186.103 154.44 187.243 154.44ZM182.987 145.7C182.835 145.776 182.721 146.105 182.645 146.688C182.569 147.271 182.518 147.929 182.493 148.664H184.469C185.66 148.664 186.521 148.651 187.053 148.626C187.053 147.41 186.876 146.549 186.521 146.042C186.192 145.535 185.609 145.282 184.773 145.282C184.089 145.282 183.494 145.421 182.987 145.7ZM206.174 141.14C206.503 141.14 206.845 141.178 207.2 141.254C207.58 141.33 207.859 141.419 208.036 141.52C208.036 142.077 207.973 143.002 207.846 144.294C207.719 145.561 207.605 146.46 207.504 146.992C207.251 146.967 206.782 146.954 206.098 146.954C204.502 146.954 203.083 147.043 201.842 147.22V159H195.344V141.52H200.778L201.538 144.332H201.576C202.311 143.369 203.096 142.597 203.932 142.014C204.768 141.431 205.515 141.14 206.174 141.14Z" fill="#222222"/>
<rect x="94" y="102" width="118" height="7" rx="3.5" fill="white"/>
<rect x="128" y="185" width="50" height="7" rx="3.5" fill="white"/>
<path d="M152.416 54.7439C152.622 54.4051 153.114 54.4051 153.32 54.7439L157.552 61.7158C157.626 61.8378 157.746 61.9247 157.885 61.9566L165.874 63.7909C166.264 63.8804 166.417 64.3532 166.153 64.6539L160.782 70.7879C160.688 70.8962 160.641 71.0386 160.654 71.182L161.362 79.2788C161.397 79.6749 160.998 79.9659 160.632 79.8119L153.073 76.6371C152.942 76.5821 152.794 76.5822 152.663 76.6371L145.104 79.8119C144.738 79.9659 144.339 79.6749 144.373 79.2788L145.082 71.182C145.095 71.0386 145.048 70.8962 144.953 70.7879L139.582 64.6539C139.319 64.3532 139.472 63.8804 139.862 63.7909L147.851 61.9566C147.99 61.9247 148.11 61.8378 148.184 61.7158L152.416 54.7439Z" fill="#EFBD0B"/>
<path d="M178.416 74.7439C178.622 74.4051 179.114 74.4051 179.32 74.7439L183.552 81.7158C183.626 81.8378 183.746 81.9247 183.885 81.9566L191.874 83.7909C192.264 83.8804 192.417 84.3532 192.153 84.6539L186.782 90.7879C186.688 90.8962 186.641 91.0386 186.654 91.182L187.362 99.2788C187.397 99.6749 186.998 99.9659 186.632 99.8119L179.073 96.6371C178.942 96.5821 178.794 96.5822 178.663 96.6371L171.104 99.8119C170.738 99.9659 170.339 99.6749 170.373 99.2788L171.082 91.182C171.095 91.0386 171.048 90.8962 170.953 90.7879L165.582 84.6539C165.319 84.3532 165.472 83.8804 165.862 83.7909L173.851 81.9566C173.99 81.9247 174.11 81.8378 174.184 81.7158L178.416 74.7439Z" fill="#EFBD0B"/>
<path d="M152.416 194.744C152.622 194.405 153.114 194.405 153.32 194.744L157.552 201.716C157.626 201.838 157.746 201.925 157.885 201.957L165.874 203.791C166.264 203.88 166.417 204.353 166.153 204.654L160.782 210.788C160.688 210.896 160.641 211.039 160.654 211.182L161.362 219.279C161.397 219.675 160.998 219.966 160.632 219.812L153.073 216.637C152.942 216.582 152.794 216.582 152.663 216.637L145.104 219.812C144.738 219.966 144.339 219.675 144.373 219.279L145.082 211.182C145.095 211.039 145.048 210.896 144.953 210.788L139.582 204.654C139.319 204.353 139.472 203.88 139.862 203.791L147.851 201.957C147.99 201.925 148.11 201.838 148.184 201.716L152.416 194.744Z" fill="#EFBD0B"/>
<path d="M125.416 74.7439C125.622 74.4051 126.114 74.4051 126.32 74.7439L130.552 81.7158C130.626 81.8378 130.746 81.9247 130.885 81.9566L138.874 83.7909C139.264 83.8804 139.417 84.3532 139.153 84.6539L133.782 90.7879C133.688 90.8962 133.641 91.0386 133.654 91.182L134.362 99.2788C134.397 99.6749 133.998 99.9659 133.632 99.8119L126.073 96.6371C125.942 96.5821 125.794 96.5822 125.663 96.6371L118.104 99.8119C117.738 99.9659 117.339 99.6749 117.373 99.2788L118.082 91.182C118.095 91.0386 118.048 90.8962 117.953 90.7879L112.582 84.6539C112.319 84.3532 112.472 83.8804 112.862 83.7909L120.851 81.9566C120.99 81.9247 121.11 81.8378 121.184 81.7158L125.416 74.7439Z" fill="#EFBD0B"/>
</svg>
