<svg width="5" height="5" viewBox="0 0 41 35" fill="none" xmlns="http://www.w3.org/2000/svg">
<path d="M18.4255 2.01629C19.426 0.561593 21.574 0.561591 22.5745 2.01629L27.6584 9.40798C28.0284 9.94596 28.593 10.3192 29.2329 10.4488L38.2749 12.2812C40.2385 12.6791 40.9733 15.0998 39.5622 16.5222L33.851 22.279C33.3221 22.8121 33.0588 23.5535 33.1329 24.3008L33.9152 32.1879C34.0989 34.0397 32.2794 35.4441 30.5345 34.7973L21.3752 31.4019C20.8105 31.1926 20.1895 31.1926 19.6248 31.4019L10.4655 34.7973C8.72057 35.4441 6.9011 34.0398 7.08478 32.1879L7.86706 24.3008C7.94118 23.5535 7.67786 22.8121 7.14896 22.279L1.43777 16.5222C0.0266798 15.0998 0.761501 12.6791 2.72515 12.2812L11.7671 10.4488C12.407 10.3192 12.9716 9.94596 13.3416 9.40798L18.4255 2.01629Z" fill="#EFBD0B"/>
</svg>
